<svg width="584" height="384" xmlns="http://www.w3.org/2000/svg" xmlns:xlink="http://www.w3.org/1999/xlink" version="1.1" baseProfile="full" viewBox="0 0 584 384">
<rect width="584" height="384" x="0" y="0" fill="#000"></rect>
<path d="M58.4 334.5L564 334.5" fill="transparent" stroke="#484753" class="zr86-cls-26"></path>
<path d="M58.4 273.5L564 273.5" fill="transparent" stroke="#484753" class="zr86-cls-26"></path>
<path d="M58.4 212.5L564 212.5" fill="transparent" stroke="#484753" class="zr86-cls-26"></path>
<path d="M58.4 151.5L564 151.5" fill="transparent" stroke="#484753" class="zr86-cls-26"></path>
<path d="M58.4 91.5L564 91.5" fill="transparent" stroke="#484753" class="zr86-cls-26"></path>
<path d="M58.4 30.5L564 30.5" fill="transparent" stroke="#484753" class="zr86-cls-26"></path>
<text dominant-baseline="central" text-anchor="middle" style="font-size:12px;font-family:Microsoft YaHei;" xml:space="preserve" y="-6" transform="matrix(0,-1,1,0,18.4,182)" fill="#B9B8CE">Mean Value (across runs, +/- SD)</text>
<path d="M58.4 334.5L564 334.5" fill="transparent" stroke="#B9B8CE" stroke-linecap="round" class="zr86-cls-26"></path>
<text dominant-baseline="central" text-anchor="middle" style="font-size:12px;font-family:Microsoft YaHei;" y="6" transform="translate(311.2 364)" fill="#B9B8CE">Epoch</text>
<path d="M58.5 334L58.5 339" fill="transparent" stroke="#B9B8CE" class="zr86-cls-26"></path>
<path d="M86.5 334L86.5 339" fill="transparent" stroke="#B9B8CE" class="zr86-cls-26"></path>
<path d="M114.5 334L114.5 339" fill="transparent" stroke="#B9B8CE" class="zr86-cls-26"></path>
<path d="M142.5 334L142.5 339" fill="transparent" stroke="#B9B8CE" class="zr86-cls-26"></path>
<path d="M169.5 334L169.5 339" fill="transparent" stroke="#B9B8CE" class="zr86-cls-26"></path>
<path d="M197.5 334L197.5 339" fill="transparent" stroke="#B9B8CE" class="zr86-cls-26"></path>
<path d="M225.5 334L225.5 339" fill="transparent" stroke="#B9B8CE" class="zr86-cls-26"></path>
<path d="M253.5 334L253.5 339" fill="transparent" stroke="#B9B8CE" class="zr86-cls-26"></path>
<path d="M281.5 334L281.5 339" fill="transparent" stroke="#B9B8CE" class="zr86-cls-26"></path>
<path d="M308.5 334L308.5 339" fill="transparent" stroke="#B9B8CE" class="zr86-cls-26"></path>
<path d="M336.5 334L336.5 339" fill="transparent" stroke="#B9B8CE" class="zr86-cls-26"></path>
<path d="M364.5 334L364.5 339" fill="transparent" stroke="#B9B8CE" class="zr86-cls-26"></path>
<path d="M392.5 334L392.5 339" fill="transparent" stroke="#B9B8CE" class="zr86-cls-26"></path>
<path d="M420.5 334L420.5 339" fill="transparent" stroke="#B9B8CE" class="zr86-cls-26"></path>
<path d="M447.5 334L447.5 339" fill="transparent" stroke="#B9B8CE" class="zr86-cls-26"></path>
<path d="M475.5 334L475.5 339" fill="transparent" stroke="#B9B8CE" class="zr86-cls-26"></path>
<path d="M503.5 334L503.5 339" fill="transparent" stroke="#B9B8CE" class="zr86-cls-26"></path>
<path d="M531.5 334L531.5 339" fill="transparent" stroke="#B9B8CE" class="zr86-cls-26"></path>
<path d="M559.5 334L559.5 339" fill="transparent" stroke="#B9B8CE" class="zr86-cls-26"></path>
<path d="M564.5 334L564.5 339" fill="transparent" stroke="#B9B8CE" class="zr86-cls-26"></path>
<text dominant-baseline="central" text-anchor="end" style="font-size:12px;font-family:Microsoft YaHei;" transform="translate(50.4 334)" fill="#B9B8CE">26</text>
<text dominant-baseline="central" text-anchor="end" style="font-size:12px;font-family:Microsoft YaHei;" transform="translate(50.4 273.2)" fill="#B9B8CE">28</text>
<text dominant-baseline="central" text-anchor="end" style="font-size:12px;font-family:Microsoft YaHei;" transform="translate(50.4 212.4)" fill="#B9B8CE">30</text>
<text dominant-baseline="central" text-anchor="end" style="font-size:12px;font-family:Microsoft YaHei;" transform="translate(50.4 151.6)" fill="#B9B8CE">32</text>
<text dominant-baseline="central" text-anchor="end" style="font-size:12px;font-family:Microsoft YaHei;" transform="translate(50.4 90.8)" fill="#B9B8CE">34</text>
<text dominant-baseline="central" text-anchor="end" style="font-size:12px;font-family:Microsoft YaHei;" transform="translate(50.4 30)" fill="#B9B8CE">36</text>
<text dominant-baseline="central" text-anchor="middle" style="font-size:12px;font-family:Microsoft YaHei;" y="6" transform="translate(59.664 342)" fill="#B9B8CE">1</text>
<text dominant-baseline="central" text-anchor="middle" style="font-size:12px;font-family:Microsoft YaHei;" y="6" transform="translate(87.472 342)" fill="#B9B8CE">12</text>
<text dominant-baseline="central" text-anchor="middle" style="font-size:12px;font-family:Microsoft YaHei;" y="6" transform="translate(115.28 342)" fill="#B9B8CE">23</text>
<text dominant-baseline="central" text-anchor="middle" style="font-size:12px;font-family:Microsoft YaHei;" y="6" transform="translate(143.088 342)" fill="#B9B8CE">34</text>
<text dominant-baseline="central" text-anchor="middle" style="font-size:12px;font-family:Microsoft YaHei;" y="6" transform="translate(170.896 342)" fill="#B9B8CE">45</text>
<text dominant-baseline="central" text-anchor="middle" style="font-size:12px;font-family:Microsoft YaHei;" y="6" transform="translate(198.704 342)" fill="#B9B8CE">56</text>
<text dominant-baseline="central" text-anchor="middle" style="font-size:12px;font-family:Microsoft YaHei;" y="6" transform="translate(226.512 342)" fill="#B9B8CE">67</text>
<text dominant-baseline="central" text-anchor="middle" style="font-size:12px;font-family:Microsoft YaHei;" y="6" transform="translate(254.32 342)" fill="#B9B8CE">78</text>
<text dominant-baseline="central" text-anchor="middle" style="font-size:12px;font-family:Microsoft YaHei;" y="6" transform="translate(282.128 342)" fill="#B9B8CE">89</text>
<text dominant-baseline="central" text-anchor="middle" style="font-size:12px;font-family:Microsoft YaHei;" y="6" transform="translate(309.936 342)" fill="#B9B8CE">100</text>
<text dominant-baseline="central" text-anchor="middle" style="font-size:12px;font-family:Microsoft YaHei;" y="6" transform="translate(337.744 342)" fill="#B9B8CE">111</text>
<text dominant-baseline="central" text-anchor="middle" style="font-size:12px;font-family:Microsoft YaHei;" y="6" transform="translate(365.552 342)" fill="#B9B8CE">122</text>
<text dominant-baseline="central" text-anchor="middle" style="font-size:12px;font-family:Microsoft YaHei;" y="6" transform="translate(393.36 342)" fill="#B9B8CE">133</text>
<text dominant-baseline="central" text-anchor="middle" style="font-size:12px;font-family:Microsoft YaHei;" y="6" transform="translate(421.168 342)" fill="#B9B8CE">144</text>
<text dominant-baseline="central" text-anchor="middle" style="font-size:12px;font-family:Microsoft YaHei;" y="6" transform="translate(448.976 342)" fill="#B9B8CE">155</text>
<text dominant-baseline="central" text-anchor="middle" style="font-size:12px;font-family:Microsoft YaHei;" y="6" transform="translate(476.784 342)" fill="#B9B8CE">166</text>
<text dominant-baseline="central" text-anchor="middle" style="font-size:12px;font-family:Microsoft YaHei;" y="6" transform="translate(504.592 342)" fill="#B9B8CE">177</text>
<text dominant-baseline="central" text-anchor="middle" style="font-size:12px;font-family:Microsoft YaHei;" y="6" transform="translate(532.4 342)" fill="#B9B8CE">188</text>
<text dominant-baseline="central" text-anchor="middle" style="font-size:12px;font-family:Microsoft YaHei;" y="6" transform="translate(560.208 342)" fill="#B9B8CE">199</text>
<g clip-path="url(#zr86-c0)">
<path d="M59.664 282.6314L62.192 282.2879L64.72 281.9359L67.248 281.5713L69.776 281.1979L72.304 280.8121L74.832 280.4193L77.36 280.0177L79.888 279.6046L82.416 279.1816L84.944 278.7458L87.472 278.304L90 277.8535L92.528 277.3875L95.056 276.9153L97.584 276.429L100.112 275.9357L102.64 275.4275L105.168 274.9114L107.696 274.3898L110.224 273.8503L112.752 273.3047L115.28 272.7438L117.808 272.1697L120.336 271.5964L122.864 270.9938L125.392 270.3917L127.92 269.7854L130.448 269.1726L132.976 268.5447L135.504 267.9081L138.032 267.2647L140.56 266.6087L143.088 265.9474L145.616 265.2752L148.144 264.5876L150.672 263.894L153.2 263.1835L155.728 262.4739L158.256 261.7515L160.784 261.0189L163.312 260.2778L165.84 259.5275L168.368 258.7707L170.896 258.0086L173.424 257.2388L175.952 256.461L178.48 255.6747L181.008 254.8744L183.536 254.0702L186.064 253.2488L188.592 252.43L191.12 251.607L193.648 250.7812L196.176 249.9424L198.704 249.1095L201.232 248.2747L203.76 247.4239L206.288 246.5714L208.816 245.7261L211.344 244.8689L213.872 244.0095L216.4 243.1528L218.928 242.2901L221.456 241.4261L223.984 240.5537L226.512 239.6931L229.04 238.8096L231.568 237.922L234.096 237.0604L236.624 236.1883L239.152 235.3099L241.68 234.4413L244.208 233.5639L246.736 232.7004L249.264 231.8357L251.792 230.9529L254.32 230.0855L256.848 229.2174L259.376 228.3631L261.904 227.5201L264.432 226.6708L266.96 225.8237L269.488 224.9745L272.016 224.1304L274.544 223.2936L277.072 222.4542L279.6 221.6223L282.128 220.8053L284.656 219.9922L287.184 219.1883L289.712 218.3873L292.24 217.5944L294.768 216.8249L297.296 216.0352L299.824 215.262L302.352 214.5157L304.88 213.7628L307.408 213.0188L309.936 212.2969L312.464 211.5811L314.992 210.8916L317.52 210.2165L320.048 209.5554L322.576 208.903L325.104 208.2784L327.632 207.662L330.16 207.0783L332.688 206.5035L335.216 205.9535L337.744 205.417L340.272 204.9022L342.8 204.4006L345.328 203.9178L347.856 203.4722L350.384 203.0418L352.912 202.6304L355.44 202.2431L357.968 201.8819L360.496 201.5415L363.024 201.2166L365.552 200.9082L368.08 200.6029L370.608 200.3374L373.136 200.0943L375.664 199.866L378.192 199.6365L380.72 199.4386L383.248 199.2531L385.776 199.0937L388.304 198.9571L390.832 198.8311L393.36 198.7291L395.888 198.6254L398.416 198.5416L400.944 198.4646L403.472 198.4032L406 198.3472L408.528 198.2991L411.056 198.2691L413.584 198.2636L416.112 198.2645L418.64 198.2666L421.168 198.2648L423.696 198.2844L426.224 198.3163L428.752 198.3448L431.28 198.3813L433.808 198.4213L436.336 198.4709L438.864 198.5114L441.392 198.5575L443.92 198.6093L446.448 198.6629L448.976 198.7217L451.504 198.7884L454.032 198.8519L456.56 198.9216L459.088 198.9966L461.616 199.0586L464.144 199.1308L466.672 199.1939L469.2 199.2616L471.728 199.3294L474.256 199.3969L476.784 199.4653L479.312 199.529L481.84 199.6089L484.368 199.679L486.896 199.7507L489.424 199.8246L491.952 199.9L494.48 199.9647L497.008 200.0403L499.536 200.1054L502.064 200.1712L504.592 200.2328L507.12 200.2993L509.648 200.3638L512.176 200.437L514.704 200.4953L517.232 200.5557L519.76 200.6165L522.288 200.6713L524.816 200.7296L527.344 200.7853L529.872 200.8429L532.4 200.8959L534.928 200.9405L537.456 200.99L539.984 201.0408L542.512 201.0842L545.04 201.1235L547.568 201.16L550.096 201.197L552.624 201.2351L555.152 201.274L557.68 201.303L560.208 201.3436L562.736 201.3757L562.736 288.4036L560.208 288.3306L557.68 288.2603L555.152 288.1855L552.624 288.1112L550.096 288.0327L547.568 287.951L545.04 287.8718L542.512 287.7887L539.984 287.703L537.456 287.6205L534.928 287.5338L532.4 287.4415L529.872 287.3557L527.344 287.2709L524.816 287.1816L522.288 287.0888L519.76 286.9942L517.232 286.8984L514.704 286.8047L512.176 286.7077L509.648 286.6093L507.12 286.5056L504.592 286.403L502.064 286.297L499.536 286.1922L497.008 286.08L494.48 285.9694L491.952 285.8572L489.424 285.7445L486.896 285.6343L484.368 285.5109L481.84 285.3952L479.312 285.2755L476.784 285.1433L474.256 285.0147L471.728 284.8803L469.2 284.747L466.672 284.6057L464.144 284.4652L461.616 284.3232L459.088 284.1773L456.56 284.0268L454.032 283.8796L451.504 283.7251L448.976 283.5682L446.448 283.412L443.92 283.2565L441.392 283.0879L438.864 282.9151L436.336 282.7473L433.808 282.5777L431.28 282.4021L428.752 282.2258L426.224 282.0427L423.696 281.8567L421.168 281.6692L418.64 281.4712L416.112 281.2828L413.584 281.0902L411.056 280.891L408.528 280.6862L406 280.4779L403.472 280.2675L400.944 280.0584L398.416 279.8429L395.888 279.6249L393.36 279.4093L390.832 279.1958L388.304 278.9763L385.776 278.7599L383.248 278.5449L380.72 278.3247L378.192 278.1043L375.664 277.8871L373.136 277.6847L370.608 277.48L368.08 277.2803L365.552 277.086L363.024 276.9025L360.496 276.7196L357.968 276.5498L355.44 276.3798L352.912 276.2209L350.384 276.0727L347.856 275.9197L345.328 275.7882L342.8 275.6639L340.272 275.567L337.744 275.4715L335.216 275.387L332.688 275.3192L330.16 275.2698L327.632 275.223L325.104 275.2025L322.576 275.1887L320.048 275.1929L317.52 275.213L314.992 275.238L312.464 275.299L309.936 275.3708L307.408 275.4648L304.88 275.5805L302.352 275.7242L299.824 275.8785L297.296 276.0674L294.768 276.2751L292.24 276.5009L289.712 276.7542L287.184 277.0273L284.656 277.2973L282.128 277.6178L279.6 277.9376L277.072 278.2899L274.544 278.6489L272.016 279.0244L269.488 279.4353L266.96 279.8614L264.432 280.2896L261.904 280.7457L259.376 281.2127L256.848 281.7031L254.32 282.2038L251.792 282.7211L249.264 283.2418L246.736 283.7937L244.208 284.3434L241.68 284.9205L239.152 285.4837L236.624 286.0561L234.096 286.6363L231.568 287.2319L229.04 287.8179L226.512 288.419L223.984 289.0254L221.456 289.6381L218.928 290.2573L216.4 290.8733L213.872 291.4862L211.344 292.1053L208.816 292.7187L206.288 293.3488L203.76 293.9763L201.232 294.5992L198.704 295.2278L196.176 295.8676L193.648 296.4951L191.12 297.126L188.592 297.7652L186.064 298.391L183.536 299.0066L181.008 299.6315L178.48 300.2585L175.952 300.8756L173.424 301.4864L170.896 302.1075L168.368 302.7197L165.84 303.3331L163.312 303.9473L160.784 304.552L158.256 305.1525L155.728 305.7531L153.2 306.3405L150.672 306.9232L148.144 307.5099L145.616 308.0763L143.088 308.6504L140.56 309.214L138.032 309.768L135.504 310.3161L132.976 310.8597L130.448 311.3981L127.92 311.9363L125.392 312.4555L122.864 312.9731L120.336 313.4879L117.808 313.9912L115.28 314.4892L112.752 314.9849L110.224 315.4685L107.696 315.9331L105.168 316.3938L102.64 316.8478L100.112 317.2944L97.584 317.7361L95.056 318.1682L92.528 318.5884L90 319.002L87.472 319.4091L84.944 319.8126L82.416 320.1996L79.888 320.584L77.36 320.9623L74.832 321.3328L72.304 321.6984L69.776 322.06L67.248 322.4124L64.72 322.7591L62.192 323.0994L59.664 323.4317Z" fill="rgb(150,46,255)" fill-opacity="0.2" class="zr86-cls-28"></path>
</g>
<g clip-path="url(#zr86-c1)">
<path d="M59.664 282.9998L62.192 282.6852L64.72 282.3622L67.248 282.0257L69.776 281.6755L72.304 281.3143L74.832 280.9379L77.36 280.5583L79.888 280.1629L82.416 279.7599L84.944 279.3409L87.472 278.9129L90 278.4711L92.528 278.0159L95.056 277.559L97.584 277.0871L100.112 276.6104L102.64 276.1168L105.168 275.6162L107.696 275.0973L110.224 274.5701L112.752 274.0271L115.28 273.4643L117.808 272.8915L120.336 272.3062L122.864 271.7126L125.392 271.1004L127.92 270.4879L130.448 269.8492L132.976 269.2054L135.504 268.5483L138.032 267.8731L140.56 267.1895L143.088 266.493L145.616 265.7847L148.144 265.0626L150.672 264.3302L153.2 263.5804L155.728 262.8182L158.256 262.0467L160.784 261.2568L163.312 260.4519L165.84 259.6302L168.368 258.805L170.896 257.9638L173.424 257.1237L175.952 256.2687L178.48 255.404L181.008 254.5175L183.536 253.6169L186.064 252.7088L188.592 251.7779L191.12 250.8392L193.648 249.8835L196.176 248.9085L198.704 247.9343L201.232 246.9496L203.76 245.9391L206.288 244.9383L208.816 243.9088L211.344 242.8747L213.872 241.829L216.4 240.7679L218.928 239.703L221.456 238.63L223.984 237.5477L226.512 236.4576L229.04 235.3557L231.568 234.2439L234.096 233.119L236.624 231.9813L239.152 230.8286L241.68 229.6618L244.208 228.4811L246.736 227.2795L249.264 226.0714L251.792 224.8433L254.32 223.5973L256.848 222.34L259.376 221.0653L261.904 219.7775L264.432 218.4836L266.96 217.1808L269.488 215.8566L272.016 214.5311L274.544 213.1923L277.072 211.8476L279.6 210.4849L282.128 209.1121L284.656 207.7304L287.184 206.3375L289.712 204.943L292.24 203.5357L294.768 202.1217L297.296 200.7101L299.824 199.2799L302.352 197.8513L304.88 196.4091L307.408 194.9575L309.936 193.4983L312.464 192.0387L314.992 190.5678L317.52 189.0878L320.048 187.612L322.576 186.1301L325.104 184.6397L327.632 183.1471L330.16 181.6558L332.688 180.1539L335.216 178.6479L337.744 177.1506L340.272 175.6461L342.8 174.1297L345.328 172.6087L347.856 171.0879L350.384 169.5631L352.912 168.0315L355.44 166.5038L357.968 164.9677L360.496 163.438L363.024 161.9085L365.552 160.3724L368.08 158.8387L370.608 157.314L373.136 155.7923L375.664 154.2766L378.192 152.7598L380.72 151.2529L383.248 149.7507L385.776 148.2465L388.304 146.7505L390.832 145.2593L393.36 143.7791L395.888 142.3064L398.416 140.8427L400.944 139.3759L403.472 137.9198L406 136.4771L408.528 135.0358L411.056 133.599L413.584 132.1786L416.112 130.7617L418.64 129.3526L421.168 127.9559L423.696 126.5736L426.224 125.2001L428.752 123.8367L431.28 122.4925L433.808 121.1567L436.336 119.8325L438.864 118.5262L441.392 117.2425L443.92 115.9651L446.448 114.7066L448.976 113.4678L451.504 112.236L454.032 111.0242L456.56 109.8255L459.088 108.6489L461.616 107.4854L464.144 106.3391L466.672 105.2084L469.2 104.0949L471.728 103.006L474.256 101.9285L476.784 100.8711L479.312 99.8314L481.84 98.8174L484.368 97.819L486.896 96.8427L489.424 95.8767L491.952 94.9336L494.48 93.9997L497.008 93.0794L499.536 92.1795L502.064 91.2971L504.592 90.4252L507.12 89.5663L509.648 88.7251L512.176 87.8963L514.704 87.0837L517.232 86.2944L519.76 85.5148L522.288 84.7496L524.816 84.0065L527.344 83.2753L529.872 82.5649L532.4 81.8678L534.928 81.1827L537.456 80.515L539.984 79.8574L542.512 79.2178L545.04 78.5882L547.568 77.9765L550.096 77.3792L552.624 76.7989L555.152 76.233L557.68 75.6839L560.208 75.1501L562.736 74.6356L562.736 213.0284L560.208 212.9015L557.68 212.7737L555.152 212.6459L552.624 212.5161L550.096 212.3871L547.568 212.2589L545.04 212.1327L542.512 212.0063L539.984 211.8829L537.456 211.7619L534.928 211.6432L532.4 211.5267L529.872 211.4136L527.344 211.3033L524.816 211.1956L522.288 211.0917L519.76 210.9916L517.232 210.8964L514.704 210.8055L512.176 210.7174L509.648 210.6345L507.12 210.5583L504.592 210.4874L502.064 210.4217L499.536 210.3636L497.008 210.3116L494.48 210.2649L491.952 210.226L489.424 210.1956L486.896 210.1706L484.368 210.1556L481.84 210.1468L479.312 210.1469L476.784 210.1546L474.256 210.1705L471.728 210.1965L469.2 210.2334L466.672 210.2826L464.144 210.3429L461.616 210.4176L459.088 210.504L456.56 210.6029L454.032 210.7198L451.504 210.8491L448.976 210.9948L446.448 211.156L443.92 211.333L441.392 211.5285L438.864 211.7377L436.336 211.9654L433.808 212.212L431.28 212.479L428.752 212.7653L426.224 213.0679L423.696 213.3954L421.168 213.7405L418.64 214.1059L416.112 214.4906L413.584 214.8983L411.056 215.328L408.528 215.7794L406 216.2546L403.472 216.7567L400.944 217.2803L398.416 217.8266L395.888 218.3914L393.36 218.9819L390.832 219.5986L388.304 220.2388L385.776 220.905L383.248 221.5906L380.72 222.2997L378.192 223.036L375.664 223.787L373.136 224.5572L370.608 225.3527L368.08 226.1694L365.552 227.0139L363.024 227.8692L360.496 228.7475L357.968 229.64L355.44 230.5492L352.912 231.4736L350.384 232.4176L347.856 233.3811L345.328 234.3462L342.8 235.3215L340.272 236.3174L337.744 237.3207L335.216 238.3361L332.688 239.3611L330.16 240.3986L327.632 241.4345L325.104 242.4831L322.576 243.5332L320.048 244.5909L317.52 245.6486L314.992 246.7162L312.464 247.7836L309.936 248.8546L307.408 249.9287L304.88 251.003L302.352 252.078L299.824 253.1542L297.296 254.2333L294.768 255.3193L292.24 256.3962L289.712 257.4702L287.184 258.5467L284.656 259.6257L282.128 260.7085L279.6 261.7813L277.072 262.857L274.544 263.9326L272.016 265.0056L269.488 266.0735L266.96 267.1327L264.432 268.1914L261.904 269.2393L259.376 270.2764L256.848 271.3163L254.32 272.3427L251.792 273.3759L249.264 274.4067L246.736 275.4253L244.208 276.448L241.68 277.4666L239.152 278.4786L236.624 279.478L234.096 280.47L231.568 281.452L229.04 282.4441L226.512 283.4099L223.984 284.3868L221.456 285.3441L218.928 286.2927L216.4 287.2392L213.872 288.1701L211.344 289.093L208.816 290.0111L206.288 290.917L203.76 291.8112L201.232 292.6935L198.704 293.5606L196.176 294.4199L193.648 295.2714L191.12 296.1104L188.592 296.9253L186.064 297.7332L183.536 298.5434L181.008 299.3348L178.48 300.1257L175.952 300.9146L173.424 301.6927L170.896 302.4698L168.368 303.2342L165.84 303.9836L163.312 304.7272L160.784 305.4644L158.256 306.1884L155.728 306.9063L153.2 307.6121L150.672 308.2982L148.144 308.9748L145.616 309.6434L143.088 310.2977L140.56 310.9447L138.032 311.5685L135.504 312.1867L132.976 312.7954L130.448 313.388L127.92 313.9777L125.392 314.5519L122.864 315.1213L120.336 315.6771L117.808 316.2316L115.28 316.7789L112.752 317.3155L110.224 317.8375L107.696 318.3474L105.168 318.8488L102.64 319.3388L100.112 319.8193L97.584 320.2914L95.056 320.7594L92.528 321.2059L90 321.6526L87.472 322.0898L84.944 322.5212L82.416 322.9432L79.888 323.3529L77.36 323.7552L74.832 324.1439L72.304 324.5235L69.776 324.8957L67.248 325.2535L64.72 325.6054L62.192 325.9468L59.664 326.2779Z" fill="rgb(189,255,200)" fill-opacity="0.2" class="zr86-cls-29"></path>
</g>
<g clip-path="url(#zr86-c2)">
<path d="M59.664 279.4909L62.192 279.1461L64.72 278.7883L67.248 278.4197L69.776 278.0365L72.304 277.6391L74.832 277.2286L77.36 276.8027L79.888 276.3658L82.416 275.9136L84.944 275.4489L87.472 274.9745L90 274.485L92.528 273.9872L95.056 273.4729L97.584 272.9473L100.112 272.4001L102.64 271.8447L105.168 271.2696L107.696 270.682L110.224 270.0833L112.752 269.4676L115.28 268.8345L117.808 268.1925L120.336 267.5392L122.864 266.8728L125.392 266.1912L127.92 265.5047L130.448 264.7953L132.976 264.076L135.504 263.3389L138.032 262.5894L140.56 261.8215L143.088 261.0431L145.616 260.2497L148.144 259.4418L150.672 258.6145L153.2 257.7861L155.728 256.94L158.256 256.0864L160.784 255.2148L163.312 254.3335L165.84 253.4407L168.368 252.5284L170.896 251.603L173.424 250.6605L175.952 249.7077L178.48 248.7297L181.008 247.7471L183.536 246.7442L186.064 245.726L188.592 244.6864L191.12 243.6329L193.648 242.5763L196.176 241.4998L198.704 240.4101L201.232 239.3092L203.76 238.189L206.288 237.0509L208.816 235.9022L211.344 234.7444L213.872 233.576L216.4 232.3906L218.928 231.1918L221.456 229.9813L223.984 228.7647L226.512 227.5263L229.04 226.2826L231.568 225.0208L234.096 223.7541L236.624 222.4671L239.152 221.1725L241.68 219.8474L244.208 218.5146L246.736 217.1723L249.264 215.8199L251.792 214.4577L254.32 213.08L256.848 211.7032L259.376 210.3174L261.904 208.9226L264.432 207.5205L266.96 206.0998L269.488 204.678L272.016 203.2462L274.544 201.8022L277.072 200.358L279.6 198.912L282.128 197.4521L284.656 195.9774L287.184 194.4986L289.712 193.0138L292.24 191.5341L294.768 190.0272L297.296 188.5202L299.824 187.017L302.352 185.5019L304.88 183.9663L307.408 182.4291L309.936 180.8722L312.464 179.3147L314.992 177.7405L317.52 176.1522L320.048 174.547L322.576 172.9409L325.104 171.332L327.632 169.7061L330.16 168.0745L332.688 166.4289L335.216 164.7613L337.744 163.0989L340.272 161.4311L342.8 159.7557L345.328 158.07L347.856 156.3947L350.384 154.7003L352.912 153.0016L355.44 151.294L357.968 149.5838L360.496 147.8688L363.024 146.1483L365.552 144.4262L368.08 142.7044L370.608 140.9739L373.136 139.2482L375.664 137.5129L378.192 135.7757L380.72 134.0331L383.248 132.2806L385.776 130.5306L388.304 128.7702L390.832 127.0166L393.36 125.2653L395.888 123.5163L398.416 121.7603L400.944 120.0139L403.472 118.2767L406 116.5401L408.528 114.8126L411.056 113.0925L413.584 111.373L416.112 109.6638L418.64 107.9519L421.168 106.2401L423.696 104.5335L426.224 102.8339L428.752 101.1447L431.28 99.4642L433.808 97.7962L436.336 96.1444L438.864 94.5042L441.392 92.8711L443.92 91.2539L446.448 89.6372L448.976 88.0412L451.504 86.4649L454.032 84.8919L456.56 83.3395L459.088 81.8021L461.616 80.2738L464.144 78.7663L466.672 77.2739L469.2 75.7908L471.728 74.3315L474.256 72.8928L476.784 71.4703L479.312 70.0714L481.84 68.6954L484.368 67.3411L486.896 65.9998L489.424 64.6823L491.952 63.3908L494.48 62.1114L497.008 60.8606L499.536 59.6287L502.064 58.4191L504.592 57.2325L507.12 56.0608L509.648 54.9183L512.176 53.7909L514.704 52.6826L517.232 51.595L519.76 50.5269L522.288 49.4862L524.816 48.4549L527.344 47.4499L529.872 46.4599L532.4 45.4963L534.928 44.5453L537.456 43.6198L539.984 42.7113L542.512 41.8198L545.04 40.9554L547.568 40.1028L550.096 39.2717L552.624 38.463L555.152 37.6789L557.68 36.914L560.208 36.1681L562.736 35.4339L562.736 189.2725L560.208 189.1236L557.68 188.9765L555.152 188.8315L552.624 188.6876L550.096 188.5448L547.568 188.4028L545.04 188.2629L542.512 188.1252L539.984 187.9894L537.456 187.8576L534.928 187.7303L532.4 187.6033L529.872 187.4823L527.344 187.3641L524.816 187.2517L522.288 187.1437L519.76 187.0432L517.232 186.9485L514.704 186.8607L512.176 186.7816L509.648 186.7085L507.12 186.645L504.592 186.5894L502.064 186.5445L499.536 186.5098L497.008 186.4872L494.48 186.4735L491.952 186.4739L489.424 186.4836L486.896 186.5103L484.368 186.5487L481.84 186.6021L479.312 186.6753L476.784 186.7623L474.256 186.865L471.728 186.9886L469.2 187.1278L466.672 187.286L464.144 187.4627L461.616 187.6604L459.088 187.8758L456.56 188.1136L454.032 188.3729L451.504 188.6563L448.976 188.9591L446.448 189.2842L443.92 189.6343L441.392 190.004L438.864 190.3934L436.336 190.8101L433.808 191.2542L431.28 191.7209L428.752 192.2147L426.224 192.7344L423.696 193.2806L421.168 193.8462L418.64 194.444L416.112 195.0606L413.584 195.7009L411.056 196.3662L408.528 197.0604L406 197.7788L403.472 198.5265L400.944 199.2931L398.416 200.0922L395.888 200.9122L393.36 201.7615L390.832 202.6317L388.304 203.5182L385.776 204.4327L383.248 205.3693L380.72 206.3207L378.192 207.2879L375.664 208.2677L373.136 209.2741L370.608 210.296L368.08 211.3396L365.552 212.3909L363.024 213.4603L360.496 214.5443L357.968 215.6492L355.44 216.7666L352.912 217.9043L350.384 219.0545L347.856 220.212L345.328 221.3845L342.8 222.563L340.272 223.7503L337.744 224.9575L335.216 226.1628L332.688 227.3815L330.16 228.6033L327.632 229.826L325.104 231.0586L322.576 232.3L320.048 233.5409L317.52 234.7908L314.992 236.03L312.464 237.2668L309.936 238.5034L307.408 239.7405L304.88 240.9714L302.352 242.2014L299.824 243.4221L297.296 244.6499L294.768 245.8761L292.24 247.0975L289.712 248.3098L287.184 249.5223L284.656 250.7285L282.128 251.917L279.6 253.111L277.072 254.2936L274.544 255.4763L272.016 256.6666L269.488 257.8399L266.96 259.0161L264.432 260.1742L261.904 261.3379L259.376 262.4899L256.848 263.6236L254.32 264.7607L251.792 265.8849L249.264 267.0111L246.736 268.121L244.208 269.2231L241.68 270.3222L239.152 271.3979L236.624 272.4748L234.096 273.56L231.568 274.6381L229.04 275.7117L226.512 276.7832L223.984 277.8461L221.456 278.9076L218.928 279.9619L216.4 280.9964L213.872 282.0155L211.344 283.013L208.816 284.0032L206.288 284.9866L203.76 285.9574L201.232 286.916L198.704 287.8648L196.176 288.8011L193.648 289.7259L191.12 290.6395L188.592 291.5376L186.064 292.4236L183.536 293.3022L181.008 294.1731L178.48 295.036L175.952 295.8914L173.424 296.7412L170.896 297.5801L168.368 298.4075L165.84 299.2262L163.312 300.024L160.784 300.8204L158.256 301.6072L155.728 302.3768L153.2 303.1266L150.672 303.8752L148.144 304.6093L145.616 305.3285L143.088 306.0425L140.56 306.7345L138.032 307.4233L135.504 308.1047L132.976 308.7596L130.448 309.4135L127.92 310.0472L125.392 310.6798L122.864 311.2996L120.336 311.9005L117.808 312.4934L115.28 313.0822L112.752 313.6551L110.224 314.2162L107.696 314.766L105.168 315.3009L102.64 315.8261L100.112 316.3379L97.584 316.845L95.056 317.34L92.528 317.821L90 318.2858L87.472 318.7438L84.944 319.1855L82.416 319.6178L79.888 320.0363L77.36 320.4409L74.832 320.8371L72.304 321.2241L69.776 321.6099L67.248 321.9785L64.72 322.3363L62.192 322.6811L59.664 323.0176Z" fill="rgb(212,168,255)" fill-opacity="0.2" class="zr86-cls-30"></path>
</g>
<g clip-path="url(#zr86-c3)">
<path d="M59.664 282.507L62.192 282.1931L64.72 281.878L67.248 281.5554L69.776 281.2229L72.304 280.8775L74.832 280.5311L77.36 280.1734L79.888 279.8077L82.416 279.4342L84.944 279.0553L87.472 278.6678L90 278.2711L92.528 277.8622L95.056 277.4466L97.584 277.0231L100.112 276.6004L102.64 276.1659L105.168 275.7241L107.696 275.273L110.224 274.8182L112.752 274.3614L115.28 273.8863L117.808 273.4047L120.336 272.9141L122.864 272.415L125.392 271.9036L127.92 271.3947L130.448 270.877L132.976 270.353L135.504 269.819L138.032 269.277L140.56 268.7198L143.088 268.1656L145.616 267.6076L148.144 267.0354L150.672 266.4672L153.2 265.8838L155.728 265.2946L158.256 264.7032L160.784 264.1028L163.312 263.4939L165.84 262.8901L168.368 262.2692L170.896 261.6451L173.424 261.0239L175.952 260.3892L178.48 259.7596L181.008 259.1231L183.536 258.4789L186.064 257.8306L188.592 257.1762L191.12 256.524L193.648 255.8649L196.176 255.2055L198.704 254.5487L201.232 253.876L203.76 253.2158L206.288 252.5508L208.816 251.8778L211.344 251.2137L213.872 250.5543L216.4 249.8812L218.928 249.2172L221.456 248.5608L223.984 247.9037L226.512 247.2372L229.04 246.5871L231.568 245.9437L234.096 245.3022L236.624 244.6567L239.152 244.0234L241.68 243.3947L244.208 242.7822L246.736 242.1677L249.264 241.5588L251.792 240.9644L254.32 240.3779L256.848 239.7874L259.376 239.2113L261.904 238.6426L264.432 238.0822L266.96 237.5233L269.488 236.9767L272.016 236.4459L274.544 235.9107L277.072 235.3923L279.6 234.9039L282.128 234.4323L284.656 233.958L287.184 233.4991L289.712 233.0449L292.24 232.6186L294.768 232.1951L297.296 231.7897L299.824 231.4049L302.352 231.0363L304.88 230.6765L307.408 230.3253L309.936 229.9923L312.464 229.6651L314.992 229.3595L317.52 229.0527L320.048 228.7823L322.576 228.5159L325.104 228.2635L327.632 228.0251L330.16 227.804L332.688 227.594L335.216 227.391L337.744 227.2083L340.272 227.0435L342.8 226.8842L345.328 226.7328L347.856 226.5893L350.384 226.4642L352.912 226.3445L355.44 226.2264L357.968 226.1175L360.496 226.0247L363.024 225.9411L365.552 225.8595L368.08 225.7818L370.608 225.7178L373.136 225.6592L375.664 225.6091L378.192 225.5781L380.72 225.5457L383.248 225.5176L385.776 225.497L388.304 225.492L390.832 225.4893L393.36 225.4949L395.888 225.5012L398.416 225.5211L400.944 225.5446L403.472 225.5685L406 225.6008L408.528 225.6358L411.056 225.6799L413.584 225.7147L416.112 225.7597L418.64 225.8103L421.168 225.8603L423.696 225.9083L426.224 225.9611L428.752 226.0129L431.28 226.0624L433.808 226.1201L436.336 226.1781L438.864 226.2462L441.392 226.3169L443.92 226.3916L446.448 226.4637L448.976 226.5352L451.504 226.6031L454.032 226.6829L456.56 226.7599L459.088 226.8355L461.616 226.9161L464.144 226.9876L466.672 227.0665L469.2 227.1381L471.728 227.2191L474.256 227.302L476.784 227.3801L479.312 227.4572L481.84 227.5424L484.368 227.623L486.896 227.7077L489.424 227.7907L491.952 227.878L494.48 227.9613L497.008 228.0436L499.536 228.119L502.064 228.1967L504.592 228.2759L507.12 228.3574L509.648 228.4414L512.176 228.5211L514.704 228.5974L517.232 228.6725L519.76 228.7552L522.288 228.8416L524.816 228.9216L527.344 229.0023L529.872 229.0829L532.4 229.1614L534.928 229.2362L537.456 229.3101L539.984 229.3857L542.512 229.4601L545.04 229.5405L547.568 229.6096L550.096 229.6837L552.624 229.7615L555.152 229.8314L557.68 229.9016L560.208 229.9743L562.736 230.0382L562.736 298.0595L560.208 298.0251L557.68 297.9871L555.152 297.9511L552.624 297.9115L550.096 297.869L547.568 297.8274L545.04 297.7811L542.512 297.7375L539.984 297.6933L537.456 297.6483L534.928 297.6039L532.4 297.5563L529.872 297.5082L527.344 297.4609L524.816 297.4069L522.288 297.3545L519.76 297.3009L517.232 297.2443L514.704 297.1855L512.176 297.1266L509.648 297.0684L507.12 297.0107L504.592 296.9489L502.064 296.8867L499.536 296.8193L497.008 296.7546L494.48 296.6872L491.952 296.6194L489.424 296.5493L486.896 296.4763L484.368 296.3999L481.84 296.3279L479.312 296.2564L476.784 296.1795L474.256 296.1007L471.728 296.0234L469.2 295.9469L466.672 295.8631L464.144 295.7752L461.616 295.6862L459.088 295.599L456.56 295.5081L454.032 295.4149L451.504 295.3163L448.976 295.216L446.448 295.1146L443.92 295.0092L441.392 294.9066L438.864 294.8017L436.336 294.6895L433.808 294.5819L431.28 294.4649L428.752 294.3504L426.224 294.2321L423.696 294.1189L421.168 294.0015L418.64 293.8864L416.112 293.7723L413.584 293.6485L411.056 293.5243L408.528 293.4015L406 293.2739L403.472 293.149L400.944 293.0226L398.416 292.8936L395.888 292.7619L393.36 292.6259L390.832 292.4916L388.304 292.3599L385.776 292.2213L383.248 292.0797L380.72 291.9457L378.192 291.8095L375.664 291.6628L373.136 291.5292L370.608 291.3872L368.08 291.2513L365.552 291.1143L363.024 290.9819L360.496 290.8459L357.968 290.7162L355.44 290.5869L352.912 290.4535L350.384 290.3251L347.856 290.2022L345.328 290.0791L342.8 289.9573L340.272 289.838L337.744 289.7201L335.216 289.61L332.688 289.5073L330.16 289.4073L327.632 289.3118L325.104 289.2232L322.576 289.1394L320.048 289.0601L317.52 288.985L314.992 288.9287L312.464 288.884L309.936 288.8422L307.408 288.8085L304.88 288.7916L302.352 288.7915L299.824 288.8049L297.296 288.818L294.768 288.8527L292.24 288.8984L289.712 288.9592L287.184 289.0324L284.656 289.11L282.128 289.2041L279.6 289.3067L277.072 289.4244L274.544 289.5459L272.016 289.6837L269.488 289.8435L266.96 290.0128L264.432 290.1953L261.904 290.3993L259.376 290.624L256.848 290.8565L254.32 291.1002L251.792 291.3592L249.264 291.6333L246.736 291.9212L244.208 292.2177L241.68 292.5417L239.152 292.8618L236.624 293.2052L234.096 293.5575L231.568 293.9279L229.04 294.3022L226.512 294.7039L223.984 295.1093L221.456 295.5047L218.928 295.9186L216.4 296.3569L213.872 296.7948L211.344 297.2299L208.816 297.6736L206.288 298.1381L203.76 298.5993L201.232 299.0598L198.704 299.5319L196.176 300.0121L193.648 300.4978L191.12 300.9921L188.592 301.4825L186.064 301.9846L183.536 302.4769L181.008 302.9847L178.48 303.4945L175.952 303.9994L173.424 304.5104L170.896 305.0119L168.368 305.5202L165.84 306.0176L163.312 306.5227L160.784 307.0219L158.256 307.5239L155.728 308.0261L153.2 308.5212L150.672 309.0224L148.144 309.5135L145.616 310.008L143.088 310.4952L140.56 310.9828L138.032 311.4722L135.504 311.9474L132.976 312.4173L130.448 312.8824L127.92 313.3561L125.392 313.8134L122.864 314.2728L120.336 314.7221L117.808 315.1665L115.28 315.6099L112.752 316.0457L110.224 316.4736L107.696 316.9008L105.168 317.312L102.64 317.7264L100.112 318.1264L97.584 318.5207L95.056 318.9069L92.528 319.2937L90 319.6795L87.472 320.0586L84.944 320.4267L82.416 320.7877L79.888 321.1503L77.36 321.506L74.832 321.8596L72.304 322.2078L69.776 322.5475L67.248 322.8816L64.72 323.2098L62.192 323.5358L59.664 323.857Z" fill="rgb(48,253,72)" fill-opacity="0.2" class="zr86-cls-31"></path>
</g>
<g clip-path="url(#zr86-c4)">
<path d="M59.664 323.4317L62.192 323.0994L64.72 322.7591L67.248 322.4124L69.776 322.06L72.304 321.6984L74.832 321.3328L77.36 320.9623L79.888 320.584L82.416 320.1996L84.944 319.8126L87.472 319.4091L90 319.002L92.528 318.5884L95.056 318.1682L97.584 317.7361L100.112 317.2944L102.64 316.8478L105.168 316.3938L107.696 315.9331L110.224 315.4685L112.752 314.9849L115.28 314.4892L117.808 313.9912L120.336 313.4879L122.864 312.9731L125.392 312.4555L127.92 311.9363L130.448 311.3981L132.976 310.8597L135.504 310.3161L138.032 309.768L140.56 309.214L143.088 308.6504L145.616 308.0763L148.144 307.5099L150.672 306.9232L153.2 306.3405L155.728 305.7531L158.256 305.1525L160.784 304.552L163.312 303.9473L165.84 303.3331L168.368 302.7197L170.896 302.1075L173.424 301.4864L175.952 300.8756L178.48 300.2585L181.008 299.6315L183.536 299.0066L186.064 298.391L188.592 297.7652L191.12 297.126L193.648 296.4951L196.176 295.8676L198.704 295.2278L201.232 294.5992L203.76 293.9763L206.288 293.3488L208.816 292.7187L211.344 292.1053L213.872 291.4862L216.4 290.8733L218.928 290.2573L221.456 289.6381L223.984 289.0254L226.512 288.419L229.04 287.8179L231.568 287.2319L234.096 286.6363L236.624 286.0561L239.152 285.4837L241.68 284.9205L244.208 284.3434L246.736 283.7937L249.264 283.2418L251.792 282.7211L254.32 282.2038L256.848 281.7031L259.376 281.2127L261.904 280.7457L264.432 280.2896L266.96 279.8614L269.488 279.4353L272.016 279.0244L274.544 278.6489L277.072 278.2899L279.6 277.9376L282.128 277.6178L284.656 277.2973L287.184 277.0273L289.712 276.7542L292.24 276.5009L294.768 276.2751L297.296 276.0674L299.824 275.8785L302.352 275.7242L304.88 275.5805L307.408 275.4648L309.936 275.3708L312.464 275.299L314.992 275.238L317.52 275.213L320.048 275.1929L322.576 275.1887L325.104 275.2025L327.632 275.223L330.16 275.2698L332.688 275.3192L335.216 275.387L337.744 275.4715L340.272 275.567L342.8 275.6639L345.328 275.7882L347.856 275.9197L350.384 276.0727L352.912 276.2209L355.44 276.3798L357.968 276.5498L360.496 276.7196L363.024 276.9025L365.552 277.086L368.08 277.2803L370.608 277.48L373.136 277.6847L375.664 277.8871L378.192 278.1043L380.72 278.3247L383.248 278.5449L385.776 278.7599L388.304 278.9763L390.832 279.1958L393.36 279.4093L395.888 279.6249L398.416 279.8429L400.944 280.0584L403.472 280.2675L406 280.4779L408.528 280.6862L411.056 280.891L413.584 281.0902L416.112 281.2828L418.64 281.4712L421.168 281.6692L423.696 281.8567L426.224 282.0427L428.752 282.2258L431.28 282.4021L433.808 282.5777L436.336 282.7473L438.864 282.9151L441.392 283.0879L443.92 283.2565L446.448 283.412L448.976 283.5682L451.504 283.7251L454.032 283.8796L456.56 284.0268L459.088 284.1773L461.616 284.3232L464.144 284.4652L466.672 284.6057L469.2 284.747L471.728 284.8803L474.256 285.0147L476.784 285.1433L479.312 285.2755L481.84 285.3952L484.368 285.5109L486.896 285.6343L489.424 285.7445L491.952 285.8572L494.48 285.9694L497.008 286.08L499.536 286.1922L502.064 286.297L504.592 286.403L507.12 286.5056L509.648 286.6093L512.176 286.7077L514.704 286.8047L517.232 286.8984L519.76 286.9942L522.288 287.0888L524.816 287.1816L527.344 287.2709L529.872 287.3557L532.4 287.4415L534.928 287.5338L537.456 287.6205L539.984 287.703L542.512 287.7887L545.04 287.8718L547.568 287.951L550.096 288.0327L552.624 288.1112L555.152 288.1855L557.68 288.2603L560.208 288.3306L562.736 288.4036" fill="transparent" stroke="#4992ff" stroke-width="2" stroke-opacity="0" stroke-linejoin="bevel" class="zr86-cls-32"></path>
</g>
<g clip-path="url(#zr86-c5)">
<path d="M59.664 303.0315L62.192 302.6937L64.72 302.3475L67.248 301.9919L69.776 301.6289L72.304 301.2552L74.832 300.876L77.36 300.49L79.888 300.0943L82.416 299.6906L84.944 299.2792L87.472 298.8566L90 298.4277L92.528 297.9879L95.056 297.5418L97.584 297.0826L100.112 296.6151L102.64 296.1377L105.168 295.6526L107.696 295.1615L110.224 294.6594L112.752 294.1448L115.28 293.6165L117.808 293.0804L120.336 292.5421L122.864 291.9834L125.392 291.4236L127.92 290.8608L130.448 290.2854L132.976 289.7022L135.504 289.1121L138.032 288.5164L140.56 287.9114L143.088 287.2989L145.616 286.6757L148.144 286.0488L150.672 285.4086L153.2 284.762L155.728 284.1135L158.256 283.452L160.784 282.7854L163.312 282.1125L165.84 281.4303L168.368 280.7452L170.896 280.0581L173.424 279.3626L175.952 278.6683L178.48 277.9666L181.008 277.2529L183.536 276.5384L186.064 275.8199L188.592 275.0976L191.12 274.3665L193.648 273.6382L196.176 272.905L198.704 272.1687L201.232 271.4369L203.76 270.7001L206.288 269.9601L208.816 269.2224L211.344 268.4871L213.872 267.7478L216.4 267.0131L218.928 266.2737L221.456 265.5321L223.984 264.7896L226.512 264.0561L229.04 263.3138L231.568 262.577L234.096 261.8484L236.624 261.1222L239.152 260.3968L241.68 259.6809L244.208 258.9537L246.736 258.247L249.264 257.5387L251.792 256.837L254.32 256.1447L256.848 255.4603L259.376 254.7879L261.904 254.1329L264.432 253.4802L266.96 252.8425L269.488 252.2049L272.016 251.5774L274.544 250.9712L277.072 250.372L279.6 249.78L282.128 249.2116L284.656 248.6448L287.184 248.1078L289.712 247.5707L292.24 247.0476L294.768 246.55L297.296 246.0514L299.824 245.5703L302.352 245.12L304.88 244.6717L307.408 244.2418L309.936 243.8339L312.464 243.44L314.992 243.0648L317.52 242.7148L320.048 242.3742L322.576 242.0459L325.104 241.7404L327.632 241.4425L330.16 241.174L332.688 240.9113L335.216 240.6703L337.744 240.4443L340.272 240.2346L342.8 240.0323L345.328 239.853L347.856 239.6959L350.384 239.5573L352.912 239.4257L355.44 239.3114L357.968 239.2159L360.496 239.1306L363.024 239.0595L365.552 238.9971L368.08 238.9416L370.608 238.9087L373.136 238.8895L375.664 238.8765L378.192 238.8704L380.72 238.8816L383.248 238.899L385.776 238.9268L388.304 238.9667L390.832 239.0134L393.36 239.0692L395.888 239.1251L398.416 239.1923L400.944 239.2615L403.472 239.3353L406 239.4125L408.528 239.4926L411.056 239.58L413.584 239.6769L416.112 239.7736L418.64 239.8689L421.168 239.967L423.696 240.0706L426.224 240.1795L428.752 240.2853L431.28 240.3917L433.808 240.4995L436.336 240.6091L438.864 240.7132L441.392 240.8227L443.92 240.9329L446.448 241.0374L448.976 241.145L451.504 241.2567L454.032 241.3657L456.56 241.4742L459.088 241.5869L461.616 241.6909L464.144 241.798L466.672 241.8998L469.2 242.0043L471.728 242.1048L474.256 242.2058L476.784 242.3043L479.312 242.4023L481.84 242.502L484.368 242.5949L486.896 242.6925L489.424 242.7846L491.952 242.8786L494.48 242.967L497.008 243.0602L499.536 243.1488L502.064 243.2341L504.592 243.3179L507.12 243.4025L509.648 243.4866L512.176 243.5724L514.704 243.65L517.232 243.7271L519.76 243.8053L522.288 243.8801L524.816 243.9556L527.344 244.0281L529.872 244.0993L532.4 244.1687L534.928 244.2371L537.456 244.3052L539.984 244.3719L542.512 244.4364L545.04 244.4977L547.568 244.5555L550.096 244.6149L552.624 244.6731L555.152 244.7298L557.68 244.7817L560.208 244.8371L562.736 244.8896" fill="transparent" stroke="#962eff" stroke-width="2" stroke-linejoin="bevel" class="zr86-cls-32"></path>
</g>
<g clip-path="url(#zr86-c0)">
<path d="M59.664 282.6314L62.192 282.2879L64.72 281.9359L67.248 281.5713L69.776 281.1979L72.304 280.8121L74.832 280.4193L77.36 280.0177L79.888 279.6046L82.416 279.1816L84.944 278.7458L87.472 278.304L90 277.8535L92.528 277.3875L95.056 276.9153L97.584 276.429L100.112 275.9357L102.64 275.4275L105.168 274.9114L107.696 274.3898L110.224 273.8503L112.752 273.3047L115.28 272.7438L117.808 272.1697L120.336 271.5964L122.864 270.9938L125.392 270.3917L127.92 269.7854L130.448 269.1726L132.976 268.5447L135.504 267.9081L138.032 267.2647L140.56 266.6087L143.088 265.9474L145.616 265.2752L148.144 264.5876L150.672 263.894L153.2 263.1835L155.728 262.4739L158.256 261.7515L160.784 261.0189L163.312 260.2778L165.84 259.5275L168.368 258.7707L170.896 258.0086L173.424 257.2388L175.952 256.461L178.48 255.6747L181.008 254.8744L183.536 254.0702L186.064 253.2488L188.592 252.43L191.12 251.607L193.648 250.7812L196.176 249.9424L198.704 249.1095L201.232 248.2747L203.76 247.4239L206.288 246.5714L208.816 245.7261L211.344 244.8689L213.872 244.0095L216.4 243.1528L218.928 242.2901L221.456 241.4261L223.984 240.5537L226.512 239.6931L229.04 238.8096L231.568 237.922L234.096 237.0604L236.624 236.1883L239.152 235.3099L241.68 234.4413L244.208 233.5639L246.736 232.7004L249.264 231.8357L251.792 230.9529L254.32 230.0855L256.848 229.2174L259.376 228.3631L261.904 227.5201L264.432 226.6708L266.96 225.8237L269.488 224.9745L272.016 224.1304L274.544 223.2936L277.072 222.4542L279.6 221.6223L282.128 220.8053L284.656 219.9922L287.184 219.1883L289.712 218.3873L292.24 217.5944L294.768 216.8249L297.296 216.0352L299.824 215.262L302.352 214.5157L304.88 213.7628L307.408 213.0188L309.936 212.2969L312.464 211.5811L314.992 210.8916L317.52 210.2165L320.048 209.5554L322.576 208.903L325.104 208.2784L327.632 207.662L330.16 207.0783L332.688 206.5035L335.216 205.9535L337.744 205.417L340.272 204.9022L342.8 204.4006L345.328 203.9178L347.856 203.4722L350.384 203.0418L352.912 202.6304L355.44 202.2431L357.968 201.8819L360.496 201.5415L363.024 201.2166L365.552 200.9082L368.08 200.6029L370.608 200.3374L373.136 200.0943L375.664 199.866L378.192 199.6365L380.72 199.4386L383.248 199.2531L385.776 199.0937L388.304 198.9571L390.832 198.8311L393.36 198.7291L395.888 198.6254L398.416 198.5416L400.944 198.4646L403.472 198.4032L406 198.3472L408.528 198.2991L411.056 198.2691L413.584 198.2636L416.112 198.2645L418.64 198.2666L421.168 198.2648L423.696 198.2844L426.224 198.3163L428.752 198.3448L431.28 198.3813L433.808 198.4213L436.336 198.4709L438.864 198.5114L441.392 198.5575L443.92 198.6093L446.448 198.6629L448.976 198.7217L451.504 198.7884L454.032 198.8519L456.56 198.9216L459.088 198.9966L461.616 199.0586L464.144 199.1308L466.672 199.1939L469.2 199.2616L471.728 199.3294L474.256 199.3969L476.784 199.4653L479.312 199.529L481.84 199.6089L484.368 199.679L486.896 199.7507L489.424 199.8246L491.952 199.9L494.48 199.9647L497.008 200.0403L499.536 200.1054L502.064 200.1712L504.592 200.2328L507.12 200.2993L509.648 200.3638L512.176 200.437L514.704 200.4953L517.232 200.5557L519.76 200.6165L522.288 200.6713L524.816 200.7296L527.344 200.7853L529.872 200.8429L532.4 200.8959L534.928 200.9405L537.456 200.99L539.984 201.0408L542.512 201.0842L545.04 201.1235L547.568 201.16L550.096 201.197L552.624 201.2351L555.152 201.274L557.68 201.303L560.208 201.3436L562.736 201.3757" fill="transparent" stroke="#7cffb2" stroke-width="2" stroke-opacity="0" stroke-linejoin="bevel" class="zr86-cls-32"></path>
</g>
<g clip-path="url(#zr86-c6)">
<path d="M59.664 326.2779L62.192 325.9468L64.72 325.6054L67.248 325.2535L69.776 324.8957L72.304 324.5235L74.832 324.1439L77.36 323.7552L79.888 323.3529L82.416 322.9432L84.944 322.5212L87.472 322.0898L90 321.6526L92.528 321.2059L95.056 320.7594L97.584 320.2914L100.112 319.8193L102.64 319.3388L105.168 318.8488L107.696 318.3474L110.224 317.8375L112.752 317.3155L115.28 316.7789L117.808 316.2316L120.336 315.6771L122.864 315.1213L125.392 314.5519L127.92 313.9777L130.448 313.388L132.976 312.7954L135.504 312.1867L138.032 311.5685L140.56 310.9447L143.088 310.2977L145.616 309.6434L148.144 308.9748L150.672 308.2982L153.2 307.6121L155.728 306.9063L158.256 306.1884L160.784 305.4644L163.312 304.7272L165.84 303.9836L168.368 303.2342L170.896 302.4698L173.424 301.6927L175.952 300.9146L178.48 300.1257L181.008 299.3348L183.536 298.5434L186.064 297.7332L188.592 296.9253L191.12 296.1104L193.648 295.2714L196.176 294.4199L198.704 293.5606L201.232 292.6935L203.76 291.8112L206.288 290.917L208.816 290.0111L211.344 289.093L213.872 288.1701L216.4 287.2392L218.928 286.2927L221.456 285.3441L223.984 284.3868L226.512 283.4099L229.04 282.4441L231.568 281.452L234.096 280.47L236.624 279.478L239.152 278.4786L241.68 277.4666L244.208 276.448L246.736 275.4253L249.264 274.4067L251.792 273.3759L254.32 272.3427L256.848 271.3163L259.376 270.2764L261.904 269.2393L264.432 268.1914L266.96 267.1327L269.488 266.0735L272.016 265.0056L274.544 263.9326L277.072 262.857L279.6 261.7813L282.128 260.7085L284.656 259.6257L287.184 258.5467L289.712 257.4702L292.24 256.3962L294.768 255.3193L297.296 254.2333L299.824 253.1542L302.352 252.078L304.88 251.003L307.408 249.9287L309.936 248.8546L312.464 247.7836L314.992 246.7162L317.52 245.6486L320.048 244.5909L322.576 243.5332L325.104 242.4831L327.632 241.4345L330.16 240.3986L332.688 239.3611L335.216 238.3361L337.744 237.3207L340.272 236.3174L342.8 235.3215L345.328 234.3462L347.856 233.3811L350.384 232.4176L352.912 231.4736L355.44 230.5492L357.968 229.64L360.496 228.7475L363.024 227.8692L365.552 227.0139L368.08 226.1694L370.608 225.3527L373.136 224.5572L375.664 223.787L378.192 223.036L380.72 222.2997L383.248 221.5906L385.776 220.905L388.304 220.2388L390.832 219.5986L393.36 218.9819L395.888 218.3914L398.416 217.8266L400.944 217.2803L403.472 216.7567L406 216.2546L408.528 215.7794L411.056 215.328L413.584 214.8983L416.112 214.4906L418.64 214.1059L421.168 213.7405L423.696 213.3954L426.224 213.0679L428.752 212.7653L431.28 212.479L433.808 212.212L436.336 211.9654L438.864 211.7377L441.392 211.5285L443.92 211.333L446.448 211.156L448.976 210.9948L451.504 210.8491L454.032 210.7198L456.56 210.6029L459.088 210.504L461.616 210.4176L464.144 210.3429L466.672 210.2826L469.2 210.2334L471.728 210.1965L474.256 210.1705L476.784 210.1546L479.312 210.1469L481.84 210.1468L484.368 210.1556L486.896 210.1706L489.424 210.1956L491.952 210.226L494.48 210.2649L497.008 210.3116L499.536 210.3636L502.064 210.4217L504.592 210.4874L507.12 210.5583L509.648 210.6345L512.176 210.7174L514.704 210.8055L517.232 210.8964L519.76 210.9916L522.288 211.0917L524.816 211.1956L527.344 211.3033L529.872 211.4136L532.4 211.5267L534.928 211.6432L537.456 211.7619L539.984 211.8829L542.512 212.0063L545.04 212.1327L547.568 212.2589L550.096 212.3871L552.624 212.5161L555.152 212.6459L557.68 212.7737L560.208 212.9015L562.736 213.0284" fill="transparent" stroke="rgb(253,221,96)" stroke-width="2" stroke-opacity="0" stroke-linejoin="bevel" class="zr86-cls-32"></path>
</g>
<g clip-path="url(#zr86-c7)">
<path d="M59.664 304.6389L62.192 304.316L64.72 303.9838L67.248 303.6396L69.776 303.2856L72.304 302.9189L74.832 302.5409L77.36 302.1568L79.888 301.7579L82.416 301.3516L84.944 300.9311L87.472 300.5013L90 300.0618L92.528 299.6109L95.056 299.1592L97.584 298.6892L100.112 298.2149L102.64 297.7278L105.168 297.2325L107.696 296.7224L110.224 296.2038L112.752 295.6713L115.28 295.1216L117.808 294.5616L120.336 293.9917L122.864 293.417L125.392 292.8262L127.92 292.2328L130.448 291.6186L132.976 291.0004L135.504 290.3675L138.032 289.7208L140.56 289.0671L143.088 288.3953L145.616 287.7141L148.144 287.0187L150.672 286.3141L153.2 285.5963L155.728 284.8622L158.256 284.1176L160.784 283.3606L163.312 282.5895L165.84 281.8069L168.368 281.0196L170.896 280.2168L173.424 279.4082L175.952 278.5917L178.48 277.7648L181.008 276.9262L183.536 276.0802L186.064 275.221L188.592 274.3516L191.12 273.4748L193.648 272.5775L196.176 271.6642L198.704 270.7474L201.232 269.8216L203.76 268.8751L206.288 267.9276L208.816 266.96L211.344 265.9839L213.872 264.9995L216.4 264.0035L218.928 262.9979L221.456 261.9871L223.984 260.9673L226.512 259.9337L229.04 258.8999L231.568 257.848L234.096 256.7945L236.624 255.7296L239.152 254.6536L241.68 253.5642L244.208 252.4646L246.736 251.3524L249.264 250.239L251.792 249.1096L254.32 247.97L256.848 246.8281L259.376 245.6708L261.904 244.5084L264.432 243.3375L266.96 242.1568L269.488 240.9651L272.016 239.7683L274.544 238.5624L277.072 237.3523L279.6 236.1331L282.128 234.9103L284.656 233.6781L287.184 232.4421L289.712 231.2066L292.24 229.966L294.768 228.7205L297.296 227.4717L299.824 226.2171L302.352 224.9646L304.88 223.7061L307.408 222.4431L309.936 221.1764L312.464 219.9111L314.992 218.642L317.52 217.3682L320.048 216.1015L322.576 214.8317L325.104 213.5614L327.632 212.2908L330.16 211.0272L332.688 209.7575L335.216 208.492L337.744 207.2357L340.272 205.9817L342.8 204.7256L345.328 203.4775L347.856 202.2345L350.384 200.9904L352.912 199.7526L355.44 198.5265L357.968 197.3038L360.496 196.0927L363.024 194.8888L365.552 193.6932L368.08 192.5041L370.608 191.3333L373.136 190.1747L375.664 189.0318L378.192 187.8979L380.72 186.7763L383.248 185.6706L385.776 184.5758L388.304 183.4946L390.832 182.4289L393.36 181.3805L395.888 180.3489L398.416 179.3346L400.944 178.3281L403.472 177.3382L406 176.3659L408.528 175.4076L411.056 174.4635L413.584 173.5385L416.112 172.6262L418.64 171.7292L421.168 170.8482L423.696 169.9845L426.224 169.134L428.752 168.301L431.28 167.4858L433.808 166.6843L436.336 165.899L438.864 165.132L441.392 164.3855L443.92 163.649L446.448 162.9313L448.976 162.2313L451.504 161.5425L454.032 160.872L456.56 160.2142L459.088 159.5764L461.616 158.9515L464.144 158.341L466.672 157.7455L469.2 157.1641L471.728 156.6012L474.256 156.0495L476.784 155.5128L479.312 154.9892L481.84 154.4821L484.368 153.9873L486.896 153.5067L489.424 153.0361L491.952 152.5798L494.48 152.1323L497.008 151.6955L499.536 151.2716L502.064 150.8594L504.592 150.4563L507.12 150.0623L509.648 149.6798L512.176 149.3069L514.704 148.9446L517.232 148.5954L519.76 148.2532L522.288 147.9206L524.816 147.6011L527.344 147.2893L529.872 146.9892L532.4 146.6973L534.928 146.4129L537.456 146.1385L539.984 145.8701L542.512 145.612L545.04 145.3605L547.568 145.1177L550.096 144.8831L552.624 144.6575L555.152 144.4394L557.68 144.2288L560.208 144.0258L562.736 143.832" fill="transparent" stroke="#bdffc8" stroke-width="2" stroke-linejoin="bevel" class="zr86-cls-32"></path>
</g>
<g clip-path="url(#zr86-c1)">
<path d="M59.664 282.9998L62.192 282.6852L64.72 282.3622L67.248 282.0257L69.776 281.6755L72.304 281.3143L74.832 280.9379L77.36 280.5583L79.888 280.1629L82.416 279.7599L84.944 279.3409L87.472 278.9129L90 278.4711L92.528 278.0159L95.056 277.559L97.584 277.0871L100.112 276.6104L102.64 276.1168L105.168 275.6162L107.696 275.0973L110.224 274.5701L112.752 274.0271L115.28 273.4643L117.808 272.8915L120.336 272.3062L122.864 271.7126L125.392 271.1004L127.92 270.4879L130.448 269.8492L132.976 269.2054L135.504 268.5483L138.032 267.8731L140.56 267.1895L143.088 266.493L145.616 265.7847L148.144 265.0626L150.672 264.3302L153.2 263.5804L155.728 262.8182L158.256 262.0467L160.784 261.2568L163.312 260.4519L165.84 259.6302L168.368 258.805L170.896 257.9638L173.424 257.1237L175.952 256.2687L178.48 255.404L181.008 254.5175L183.536 253.6169L186.064 252.7088L188.592 251.7779L191.12 250.8392L193.648 249.8835L196.176 248.9085L198.704 247.9343L201.232 246.9496L203.76 245.9391L206.288 244.9383L208.816 243.9088L211.344 242.8747L213.872 241.829L216.4 240.7679L218.928 239.703L221.456 238.63L223.984 237.5477L226.512 236.4576L229.04 235.3557L231.568 234.2439L234.096 233.119L236.624 231.9813L239.152 230.8286L241.68 229.6618L244.208 228.4811L246.736 227.2795L249.264 226.0714L251.792 224.8433L254.32 223.5973L256.848 222.34L259.376 221.0653L261.904 219.7775L264.432 218.4836L266.96 217.1808L269.488 215.8566L272.016 214.5311L274.544 213.1923L277.072 211.8476L279.6 210.4849L282.128 209.1121L284.656 207.7304L287.184 206.3375L289.712 204.943L292.24 203.5357L294.768 202.1217L297.296 200.7101L299.824 199.2799L302.352 197.8513L304.88 196.4091L307.408 194.9575L309.936 193.4983L312.464 192.0387L314.992 190.5678L317.52 189.0878L320.048 187.612L322.576 186.1301L325.104 184.6397L327.632 183.1471L330.16 181.6558L332.688 180.1539L335.216 178.6479L337.744 177.1506L340.272 175.6461L342.8 174.1297L345.328 172.6087L347.856 171.0879L350.384 169.5631L352.912 168.0315L355.44 166.5038L357.968 164.9677L360.496 163.438L363.024 161.9085L365.552 160.3724L368.08 158.8387L370.608 157.314L373.136 155.7923L375.664 154.2766L378.192 152.7598L380.72 151.2529L383.248 149.7507L385.776 148.2465L388.304 146.7505L390.832 145.2593L393.36 143.7791L395.888 142.3064L398.416 140.8427L400.944 139.3759L403.472 137.9198L406 136.4771L408.528 135.0358L411.056 133.599L413.584 132.1786L416.112 130.7617L418.64 129.3526L421.168 127.9559L423.696 126.5736L426.224 125.2001L428.752 123.8367L431.28 122.4925L433.808 121.1567L436.336 119.8325L438.864 118.5262L441.392 117.2425L443.92 115.9651L446.448 114.7066L448.976 113.4678L451.504 112.236L454.032 111.0242L456.56 109.8255L459.088 108.6489L461.616 107.4854L464.144 106.3391L466.672 105.2084L469.2 104.0949L471.728 103.006L474.256 101.9285L476.784 100.8711L479.312 99.8314L481.84 98.8174L484.368 97.819L486.896 96.8427L489.424 95.8767L491.952 94.9336L494.48 93.9997L497.008 93.0794L499.536 92.1795L502.064 91.2971L504.592 90.4252L507.12 89.5663L509.648 88.7251L512.176 87.8963L514.704 87.0837L517.232 86.2944L519.76 85.5148L522.288 84.7496L524.816 84.0065L527.344 83.2753L529.872 82.5649L532.4 81.8678L534.928 81.1827L537.456 80.515L539.984 79.8574L542.512 79.2178L545.04 78.5882L547.568 77.9765L550.096 77.3792L552.624 76.7989L555.152 76.233L557.68 75.6839L560.208 75.1501L562.736 74.6356" fill="transparent" stroke="rgb(255,110,118)" stroke-width="2" stroke-opacity="0" stroke-linejoin="bevel" class="zr86-cls-32"></path>
</g>
<g clip-path="url(#zr86-c8)">
<path d="M59.664 323.0176L62.192 322.6811L64.72 322.3363L67.248 321.9785L69.776 321.6099L72.304 321.2241L74.832 320.8371L77.36 320.4409L79.888 320.0363L82.416 319.6178L84.944 319.1855L87.472 318.7438L90 318.2858L92.528 317.821L95.056 317.34L97.584 316.845L100.112 316.3379L102.64 315.8261L105.168 315.3009L107.696 314.766L110.224 314.2162L112.752 313.6551L115.28 313.0822L117.808 312.4934L120.336 311.9005L122.864 311.2996L125.392 310.6798L127.92 310.0472L130.448 309.4135L132.976 308.7596L135.504 308.1047L138.032 307.4233L140.56 306.7345L143.088 306.0425L145.616 305.3285L148.144 304.6093L150.672 303.8752L153.2 303.1266L155.728 302.3768L158.256 301.6072L160.784 300.8204L163.312 300.024L165.84 299.2262L168.368 298.4075L170.896 297.5801L173.424 296.7412L175.952 295.8914L178.48 295.036L181.008 294.1731L183.536 293.3022L186.064 292.4236L188.592 291.5376L191.12 290.6395L193.648 289.7259L196.176 288.8011L198.704 287.8648L201.232 286.916L203.76 285.9574L206.288 284.9866L208.816 284.0032L211.344 283.013L213.872 282.0155L216.4 280.9964L218.928 279.9619L221.456 278.9076L223.984 277.8461L226.512 276.7832L229.04 275.7117L231.568 274.6381L234.096 273.56L236.624 272.4748L239.152 271.3979L241.68 270.3222L244.208 269.2231L246.736 268.121L249.264 267.0111L251.792 265.8849L254.32 264.7607L256.848 263.6236L259.376 262.4899L261.904 261.3379L264.432 260.1742L266.96 259.0161L269.488 257.8399L272.016 256.6666L274.544 255.4763L277.072 254.2936L279.6 253.111L282.128 251.917L284.656 250.7285L287.184 249.5223L289.712 248.3098L292.24 247.0975L294.768 245.8761L297.296 244.6499L299.824 243.4221L302.352 242.2014L304.88 240.9714L307.408 239.7405L309.936 238.5034L312.464 237.2668L314.992 236.03L317.52 234.7908L320.048 233.5409L322.576 232.3L325.104 231.0586L327.632 229.826L330.16 228.6033L332.688 227.3815L335.216 226.1628L337.744 224.9575L340.272 223.7503L342.8 222.563L345.328 221.3845L347.856 220.212L350.384 219.0545L352.912 217.9043L355.44 216.7666L357.968 215.6492L360.496 214.5443L363.024 213.4603L365.552 212.3909L368.08 211.3396L370.608 210.296L373.136 209.2741L375.664 208.2677L378.192 207.2879L380.72 206.3207L383.248 205.3693L385.776 204.4327L388.304 203.5182L390.832 202.6317L393.36 201.7615L395.888 200.9122L398.416 200.0922L400.944 199.2931L403.472 198.5265L406 197.7788L408.528 197.0604L411.056 196.3662L413.584 195.7009L416.112 195.0606L418.64 194.444L421.168 193.8462L423.696 193.2806L426.224 192.7344L428.752 192.2147L431.28 191.7209L433.808 191.2542L436.336 190.8101L438.864 190.3934L441.392 190.004L443.92 189.6343L446.448 189.2842L448.976 188.9591L451.504 188.6563L454.032 188.3729L456.56 188.1136L459.088 187.8758L461.616 187.6604L464.144 187.4627L466.672 187.286L469.2 187.1278L471.728 186.9886L474.256 186.865L476.784 186.7623L479.312 186.6753L481.84 186.6021L484.368 186.5487L486.896 186.5103L489.424 186.4836L491.952 186.4739L494.48 186.4735L497.008 186.4872L499.536 186.5098L502.064 186.5445L504.592 186.5894L507.12 186.645L509.648 186.7085L512.176 186.7816L514.704 186.8607L517.232 186.9485L519.76 187.0432L522.288 187.1437L524.816 187.2517L527.344 187.3641L529.872 187.4823L532.4 187.6033L534.928 187.7303L537.456 187.8576L539.984 187.9894L542.512 188.1252L545.04 188.2629L547.568 188.4028L550.096 188.5448L552.624 188.6876L555.152 188.8315L557.68 188.9765L560.208 189.1236L562.736 189.2725" fill="transparent" stroke="rgb(88,217,249)" stroke-width="2" stroke-opacity="0" stroke-linejoin="bevel" class="zr86-cls-32"></path>
</g>
<g clip-path="url(#zr86-c9)">
<path d="M59.664 301.2543L62.192 300.9136L64.72 300.5623L67.248 300.1991L69.776 299.8232L72.304 299.4316L74.832 299.0328L77.36 298.6218L79.888 298.201L82.416 297.7657L84.944 297.3172L87.472 296.8592L90 296.3854L92.528 295.9041L95.056 295.4065L97.584 294.8962L100.112 294.369L102.64 293.8354L105.168 293.2852L107.696 292.724L110.224 292.1497L112.752 291.5613L115.28 290.9583L117.808 290.343L120.336 289.7198L122.864 289.0862L125.392 288.4355L127.92 287.7759L130.448 287.1044L132.976 286.4178L135.504 285.7218L138.032 285.0063L140.56 284.278L143.088 283.5428L145.616 282.7891L148.144 282.0255L150.672 281.2448L153.2 280.4563L155.728 279.6584L158.256 278.8468L160.784 278.0176L163.312 277.1788L165.84 276.3335L168.368 275.468L170.896 274.5916L173.424 273.7009L175.952 272.7996L178.48 271.8829L181.008 270.9601L183.536 270.0232L186.064 269.0748L188.592 268.112L191.12 267.1362L193.648 266.1511L196.176 265.1504L198.704 264.1375L201.232 263.1126L203.76 262.0732L206.288 261.0188L208.816 259.9527L211.344 258.8787L213.872 257.7957L216.4 256.6935L218.928 255.5768L221.456 254.4445L223.984 253.3054L226.512 252.1548L229.04 250.9972L231.568 249.8295L234.096 248.6571L236.624 247.4709L239.152 246.2852L241.68 245.0848L244.208 243.8689L246.736 242.6467L249.264 241.4155L251.792 240.1713L254.32 238.9203L256.848 237.6634L259.376 236.4036L261.904 235.1302L264.432 233.8474L266.96 232.5579L269.488 231.259L272.016 229.9564L274.544 228.6393L277.072 227.3258L279.6 226.0115L282.128 224.6845L284.656 223.353L287.184 222.0105L289.712 220.6618L292.24 219.3158L294.768 217.9516L297.296 216.585L299.824 215.2196L302.352 213.8517L304.88 212.4689L307.408 211.0848L309.936 209.6878L312.464 208.2907L314.992 206.8853L317.52 205.4715L320.048 204.0439L322.576 202.6204L325.104 201.1953L327.632 199.766L330.16 198.3389L332.688 196.9052L335.216 195.462L337.744 194.0282L340.272 192.5907L342.8 191.1593L345.328 189.7272L347.856 188.3034L350.384 186.8774L352.912 185.4529L355.44 184.0303L357.968 182.6165L360.496 181.2066L363.024 179.8043L365.552 178.4086L368.08 177.022L370.608 175.635L373.136 174.2612L375.664 172.8903L378.192 171.5318L380.72 170.1769L383.248 168.825L385.776 167.4816L388.304 166.1442L390.832 164.8242L393.36 163.5134L395.888 162.2143L398.416 160.9262L400.944 159.6535L403.472 158.4016L406 157.1594L408.528 155.9365L411.056 154.7294L413.584 153.537L416.112 152.3622L418.64 151.1979L421.168 150.0431L423.696 148.907L426.224 147.7842L428.752 146.6797L431.28 145.5926L433.808 144.5252L436.336 143.4772L438.864 142.4488L441.392 141.4376L443.92 140.4441L446.448 139.4607L448.976 138.5001L451.504 137.5606L454.032 136.6324L456.56 135.7266L459.088 134.839L461.616 133.9671L464.144 133.1145L466.672 132.2799L469.2 131.4594L471.728 130.66L474.256 129.8789L476.784 129.1163L479.312 128.3733L481.84 127.6488L484.368 126.9449L486.896 126.255L489.424 125.5829L491.952 124.9323L494.48 124.2925L497.008 123.6739L499.536 123.0692L502.064 122.4818L504.592 121.911L507.12 121.3529L509.648 120.8134L512.176 120.2863L514.704 119.7717L517.232 119.2718L519.76 118.7851L522.288 118.3149L524.816 117.8533L527.344 117.407L529.872 116.9711L532.4 116.5498L534.928 116.1378L537.456 115.7387L539.984 115.3504L542.512 114.9725L545.04 114.6092L547.568 114.2528L550.096 113.9083L552.624 113.5753L555.152 113.2552L557.68 112.9453L560.208 112.6458L562.736 112.3532" fill="transparent" stroke="#d4a8ff" stroke-width="2" stroke-linejoin="bevel" class="zr86-cls-32"></path>
</g>
<g clip-path="url(#zr86-c2)">
<path d="M59.664 279.4909L62.192 279.1461L64.72 278.7883L67.248 278.4197L69.776 278.0365L72.304 277.6391L74.832 277.2286L77.36 276.8027L79.888 276.3658L82.416 275.9136L84.944 275.4489L87.472 274.9745L90 274.485L92.528 273.9872L95.056 273.4729L97.584 272.9473L100.112 272.4001L102.64 271.8447L105.168 271.2696L107.696 270.682L110.224 270.0833L112.752 269.4676L115.28 268.8345L117.808 268.1925L120.336 267.5392L122.864 266.8728L125.392 266.1912L127.92 265.5047L130.448 264.7953L132.976 264.076L135.504 263.3389L138.032 262.5894L140.56 261.8215L143.088 261.0431L145.616 260.2497L148.144 259.4418L150.672 258.6145L153.2 257.7861L155.728 256.94L158.256 256.0864L160.784 255.2148L163.312 254.3335L165.84 253.4407L168.368 252.5284L170.896 251.603L173.424 250.6605L175.952 249.7077L178.48 248.7297L181.008 247.7471L183.536 246.7442L186.064 245.726L188.592 244.6864L191.12 243.6329L193.648 242.5763L196.176 241.4998L198.704 240.4101L201.232 239.3092L203.76 238.189L206.288 237.0509L208.816 235.9022L211.344 234.7444L213.872 233.576L216.4 232.3906L218.928 231.1918L221.456 229.9813L223.984 228.7647L226.512 227.5263L229.04 226.2826L231.568 225.0208L234.096 223.7541L236.624 222.4671L239.152 221.1725L241.68 219.8474L244.208 218.5146L246.736 217.1723L249.264 215.8199L251.792 214.4577L254.32 213.08L256.848 211.7032L259.376 210.3174L261.904 208.9226L264.432 207.5205L266.96 206.0998L269.488 204.678L272.016 203.2462L274.544 201.8022L277.072 200.358L279.6 198.912L282.128 197.4521L284.656 195.9774L287.184 194.4986L289.712 193.0138L292.24 191.5341L294.768 190.0272L297.296 188.5202L299.824 187.017L302.352 185.5019L304.88 183.9663L307.408 182.4291L309.936 180.8722L312.464 179.3147L314.992 177.7405L317.52 176.1522L320.048 174.547L322.576 172.9409L325.104 171.332L327.632 169.7061L330.16 168.0745L332.688 166.4289L335.216 164.7613L337.744 163.0989L340.272 161.4311L342.8 159.7557L345.328 158.07L347.856 156.3947L350.384 154.7003L352.912 153.0016L355.44 151.294L357.968 149.5838L360.496 147.8688L363.024 146.1483L365.552 144.4262L368.08 142.7044L370.608 140.9739L373.136 139.2482L375.664 137.5129L378.192 135.7757L380.72 134.0331L383.248 132.2806L385.776 130.5306L388.304 128.7702L390.832 127.0166L393.36 125.2653L395.888 123.5163L398.416 121.7603L400.944 120.0139L403.472 118.2767L406 116.5401L408.528 114.8126L411.056 113.0925L413.584 111.373L416.112 109.6638L418.64 107.9519L421.168 106.2401L423.696 104.5335L426.224 102.8339L428.752 101.1447L431.28 99.4642L433.808 97.7962L436.336 96.1444L438.864 94.5042L441.392 92.8711L443.92 91.2539L446.448 89.6372L448.976 88.0412L451.504 86.4649L454.032 84.8919L456.56 83.3395L459.088 81.8021L461.616 80.2738L464.144 78.7663L466.672 77.2739L469.2 75.7908L471.728 74.3315L474.256 72.8928L476.784 71.4703L479.312 70.0714L481.84 68.6954L484.368 67.3411L486.896 65.9998L489.424 64.6823L491.952 63.3908L494.48 62.1114L497.008 60.8606L499.536 59.6287L502.064 58.4191L504.592 57.2325L507.12 56.0608L509.648 54.9183L512.176 53.7909L514.704 52.6826L517.232 51.595L519.76 50.5269L522.288 49.4862L524.816 48.4549L527.344 47.4499L529.872 46.4599L532.4 45.4963L534.928 44.5453L537.456 43.6198L539.984 42.7113L542.512 41.8198L545.04 40.9554L547.568 40.1028L550.096 39.2717L552.624 38.463L555.152 37.6789L557.68 36.914L560.208 36.1681L562.736 35.4339" fill="transparent" stroke="rgb(5,192,145)" stroke-width="2" stroke-opacity="0" stroke-linejoin="bevel" class="zr86-cls-32"></path>
</g>
<g clip-path="url(#zr86-c10)">
<path d="M59.664 323.857L62.192 323.5358L64.72 323.2098L67.248 322.8816L69.776 322.5475L72.304 322.2078L74.832 321.8596L77.36 321.506L79.888 321.1503L82.416 320.7877L84.944 320.4267L87.472 320.0586L90 319.6795L92.528 319.2937L95.056 318.9069L97.584 318.5207L100.112 318.1264L102.64 317.7264L105.168 317.312L107.696 316.9008L110.224 316.4736L112.752 316.0457L115.28 315.6099L117.808 315.1665L120.336 314.7221L122.864 314.2728L125.392 313.8134L127.92 313.3561L130.448 312.8824L132.976 312.4173L135.504 311.9474L138.032 311.4722L140.56 310.9828L143.088 310.4952L145.616 310.008L148.144 309.5135L150.672 309.0224L153.2 308.5212L155.728 308.0261L158.256 307.5239L160.784 307.0219L163.312 306.5227L165.84 306.0176L168.368 305.5202L170.896 305.0119L173.424 304.5104L175.952 303.9994L178.48 303.4945L181.008 302.9847L183.536 302.4769L186.064 301.9846L188.592 301.4825L191.12 300.9921L193.648 300.4978L196.176 300.0121L198.704 299.5319L201.232 299.0598L203.76 298.5993L206.288 298.1381L208.816 297.6736L211.344 297.2299L213.872 296.7948L216.4 296.3569L218.928 295.9186L221.456 295.5047L223.984 295.1093L226.512 294.7039L229.04 294.3022L231.568 293.9279L234.096 293.5575L236.624 293.2052L239.152 292.8618L241.68 292.5417L244.208 292.2177L246.736 291.9212L249.264 291.6333L251.792 291.3592L254.32 291.1002L256.848 290.8565L259.376 290.624L261.904 290.3993L264.432 290.1953L266.96 290.0128L269.488 289.8435L272.016 289.6837L274.544 289.5459L277.072 289.4244L279.6 289.3067L282.128 289.2041L284.656 289.11L287.184 289.0324L289.712 288.9592L292.24 288.8984L294.768 288.8527L297.296 288.818L299.824 288.8049L302.352 288.7915L304.88 288.7916L307.408 288.8085L309.936 288.8422L312.464 288.884L314.992 288.9287L317.52 288.985L320.048 289.0601L322.576 289.1394L325.104 289.2232L327.632 289.3118L330.16 289.4073L332.688 289.5073L335.216 289.61L337.744 289.7201L340.272 289.838L342.8 289.9573L345.328 290.0791L347.856 290.2022L350.384 290.3251L352.912 290.4535L355.44 290.5869L357.968 290.7162L360.496 290.8459L363.024 290.9819L365.552 291.1143L368.08 291.2513L370.608 291.3872L373.136 291.5292L375.664 291.6628L378.192 291.8095L380.72 291.9457L383.248 292.0797L385.776 292.2213L388.304 292.3599L390.832 292.4916L393.36 292.6259L395.888 292.7619L398.416 292.8936L400.944 293.0226L403.472 293.149L406 293.2739L408.528 293.4015L411.056 293.5243L413.584 293.6485L416.112 293.7723L418.64 293.8864L421.168 294.0015L423.696 294.1189L426.224 294.2321L428.752 294.3504L431.28 294.4649L433.808 294.5819L436.336 294.6895L438.864 294.8017L441.392 294.9066L443.92 295.0092L446.448 295.1146L448.976 295.216L451.504 295.3163L454.032 295.4149L456.56 295.5081L459.088 295.599L461.616 295.6862L464.144 295.7752L466.672 295.8631L469.2 295.9469L471.728 296.0234L474.256 296.1007L476.784 296.1795L479.312 296.2564L481.84 296.3279L484.368 296.3999L486.896 296.4763L489.424 296.5493L491.952 296.6194L494.48 296.6872L497.008 296.7546L499.536 296.8193L502.064 296.8867L504.592 296.9489L507.12 297.0107L509.648 297.0684L512.176 297.1266L514.704 297.1855L517.232 297.2443L519.76 297.3009L522.288 297.3545L524.816 297.4069L527.344 297.4609L529.872 297.5082L532.4 297.5563L534.928 297.6039L537.456 297.6483L539.984 297.6933L542.512 297.7375L545.04 297.7811L547.568 297.8274L550.096 297.869L552.624 297.9115L555.152 297.9511L557.68 297.9871L560.208 298.0251L562.736 298.0595" fill="transparent" stroke="#ff8a45" stroke-width="2" stroke-opacity="0" stroke-linejoin="bevel" class="zr86-cls-32"></path>
</g>
<g clip-path="url(#zr86-c11)">
<path d="M59.664 303.182L62.192 302.8644L64.72 302.5439L67.248 302.2185L69.776 301.8852L72.304 301.5427L74.832 301.1954L77.36 300.8397L79.888 300.479L82.416 300.1109L84.944 299.741L87.472 299.3632L90 298.9753L92.528 298.5779L95.056 298.1767L97.584 297.7719L100.112 297.3634L102.64 296.9461L105.168 296.5181L107.696 296.0869L110.224 295.6459L112.752 295.2035L115.28 294.7481L117.808 294.2856L120.336 293.8181L122.864 293.3439L125.392 292.8585L127.92 292.3754L130.448 291.8796L132.976 291.3852L135.504 290.8832L138.032 290.3746L140.56 289.8513L143.088 289.3304L145.616 288.8078L148.144 288.2744L150.672 287.7448L153.2 287.2025L155.728 286.6603L158.256 286.1136L160.784 285.5623L163.312 285.0083L165.84 284.4539L168.368 283.8947L170.896 283.3285L173.424 282.7671L175.952 282.1943L178.48 281.6271L181.008 281.0539L183.536 280.4779L186.064 279.9076L188.592 279.3294L191.12 278.758L193.648 278.1813L196.176 277.6088L198.704 277.0403L201.232 276.4679L203.76 275.9076L206.288 275.3444L208.816 274.7757L211.344 274.2218L213.872 273.6746L216.4 273.119L218.928 272.5679L221.456 272.0328L223.984 271.5065L226.512 270.9706L229.04 270.4446L231.568 269.9358L234.096 269.4299L236.624 268.9309L239.152 268.4426L241.68 267.9682L244.208 267.4999L246.736 267.0444L249.264 266.596L251.792 266.1618L254.32 265.739L256.848 265.322L259.376 264.9176L261.904 264.5209L264.432 264.1387L266.96 263.768L269.488 263.4101L272.016 263.0648L274.544 262.7283L277.072 262.4084L279.6 262.1053L282.128 261.8182L284.656 261.534L287.184 261.2657L289.712 261.0021L292.24 260.7585L294.768 260.5239L297.296 260.3038L299.824 260.1049L302.352 259.9139L304.88 259.7341L307.408 259.5669L309.936 259.4173L312.464 259.2746L314.992 259.1441L317.52 259.0188L320.048 258.9212L322.576 258.8277L325.104 258.7433L327.632 258.6684L330.16 258.6056L332.688 258.5506L335.216 258.5005L337.744 258.4642L340.272 258.4407L342.8 258.4207L345.328 258.406L347.856 258.3958L350.384 258.3947L352.912 258.399L355.44 258.4066L357.968 258.4168L360.496 258.4353L363.024 258.4615L365.552 258.4869L368.08 258.5166L370.608 258.5525L373.136 258.5942L375.664 258.636L378.192 258.6938L380.72 258.7457L383.248 258.7986L385.776 258.8592L388.304 258.9259L390.832 258.9904L393.36 259.0604L395.888 259.1316L398.416 259.2073L400.944 259.2836L403.472 259.3588L406 259.4373L408.528 259.5187L411.056 259.6021L413.584 259.6816L416.112 259.766L418.64 259.8483L421.168 259.9309L423.696 260.0136L426.224 260.0966L428.752 260.1816L431.28 260.2636L433.808 260.351L436.336 260.4338L438.864 260.5239L441.392 260.6117L443.92 260.7004L446.448 260.7892L448.976 260.8756L451.504 260.9597L454.032 261.049L456.56 261.134L459.088 261.2172L461.616 261.3011L464.144 261.3814L466.672 261.4648L469.2 261.5425L471.728 261.6212L474.256 261.7014L476.784 261.7798L479.312 261.8568L481.84 261.9352L484.368 262.0115L486.896 262.092L489.424 262.17L491.952 262.2487L494.48 262.3243L497.008 262.3991L499.536 262.4692L502.064 262.5417L504.592 262.6124L507.12 262.6841L509.648 262.7549L512.176 262.8239L514.704 262.8915L517.232 262.9584L519.76 263.028L522.288 263.098L524.816 263.1642L527.344 263.2316L529.872 263.2956L532.4 263.3589L534.928 263.42L537.456 263.4792L539.984 263.5395L542.512 263.5988L545.04 263.6608L547.568 263.7185L550.096 263.7764L552.624 263.8365L555.152 263.8912L557.68 263.9444L560.208 263.9997L562.736 264.0489" fill="transparent" stroke="#30fd48" stroke-width="2" stroke-linejoin="bevel" class="zr86-cls-32"></path>
</g>
<g clip-path="url(#zr86-c3)">
<path d="M59.664 282.507L62.192 282.1931L64.72 281.878L67.248 281.5554L69.776 281.2229L72.304 280.8775L74.832 280.5311L77.36 280.1734L79.888 279.8077L82.416 279.4342L84.944 279.0553L87.472 278.6678L90 278.2711L92.528 277.8622L95.056 277.4466L97.584 277.0231L100.112 276.6004L102.64 276.1659L105.168 275.7241L107.696 275.273L110.224 274.8182L112.752 274.3614L115.28 273.8863L117.808 273.4047L120.336 272.9141L122.864 272.415L125.392 271.9036L127.92 271.3947L130.448 270.877L132.976 270.353L135.504 269.819L138.032 269.277L140.56 268.7198L143.088 268.1656L145.616 267.6076L148.144 267.0354L150.672 266.4672L153.2 265.8838L155.728 265.2946L158.256 264.7032L160.784 264.1028L163.312 263.4939L165.84 262.8901L168.368 262.2692L170.896 261.6451L173.424 261.0239L175.952 260.3892L178.48 259.7596L181.008 259.1231L183.536 258.4789L186.064 257.8306L188.592 257.1762L191.12 256.524L193.648 255.8649L196.176 255.2055L198.704 254.5487L201.232 253.876L203.76 253.2158L206.288 252.5508L208.816 251.8778L211.344 251.2137L213.872 250.5543L216.4 249.8812L218.928 249.2172L221.456 248.5608L223.984 247.9037L226.512 247.2372L229.04 246.5871L231.568 245.9437L234.096 245.3022L236.624 244.6567L239.152 244.0234L241.68 243.3947L244.208 242.7822L246.736 242.1677L249.264 241.5588L251.792 240.9644L254.32 240.3779L256.848 239.7874L259.376 239.2113L261.904 238.6426L264.432 238.0822L266.96 237.5233L269.488 236.9767L272.016 236.4459L274.544 235.9107L277.072 235.3923L279.6 234.9039L282.128 234.4323L284.656 233.958L287.184 233.4991L289.712 233.0449L292.24 232.6186L294.768 232.1951L297.296 231.7897L299.824 231.4049L302.352 231.0363L304.88 230.6765L307.408 230.3253L309.936 229.9923L312.464 229.6651L314.992 229.3595L317.52 229.0527L320.048 228.7823L322.576 228.5159L325.104 228.2635L327.632 228.0251L330.16 227.804L332.688 227.594L335.216 227.391L337.744 227.2083L340.272 227.0435L342.8 226.8842L345.328 226.7328L347.856 226.5893L350.384 226.4642L352.912 226.3445L355.44 226.2264L357.968 226.1175L360.496 226.0247L363.024 225.9411L365.552 225.8595L368.08 225.7818L370.608 225.7178L373.136 225.6592L375.664 225.6091L378.192 225.5781L380.72 225.5457L383.248 225.5176L385.776 225.497L388.304 225.492L390.832 225.4893L393.36 225.4949L395.888 225.5012L398.416 225.5211L400.944 225.5446L403.472 225.5685L406 225.6008L408.528 225.6358L411.056 225.6799L413.584 225.7147L416.112 225.7597L418.64 225.8103L421.168 225.8603L423.696 225.9083L426.224 225.9611L428.752 226.0129L431.28 226.0624L433.808 226.1201L436.336 226.1781L438.864 226.2462L441.392 226.3169L443.92 226.3916L446.448 226.4637L448.976 226.5352L451.504 226.6031L454.032 226.6829L456.56 226.7599L459.088 226.8355L461.616 226.9161L464.144 226.9876L466.672 227.0665L469.2 227.1381L471.728 227.2191L474.256 227.302L476.784 227.3801L479.312 227.4572L481.84 227.5424L484.368 227.623L486.896 227.7077L489.424 227.7907L491.952 227.878L494.48 227.9613L497.008 228.0436L499.536 228.119L502.064 228.1967L504.592 228.2759L507.12 228.3574L509.648 228.4414L512.176 228.5211L514.704 228.5974L517.232 228.6725L519.76 228.7552L522.288 228.8416L524.816 228.9216L527.344 229.0023L529.872 229.0829L532.4 229.1614L534.928 229.2362L537.456 229.3101L539.984 229.3857L542.512 229.4601L545.04 229.5405L547.568 229.6096L550.096 229.6837L552.624 229.7615L555.152 229.8314L557.68 229.9016L560.208 229.9743L562.736 230.0382" fill="transparent" stroke="rgb(141,72,227)" stroke-width="2" stroke-opacity="0" stroke-linejoin="bevel" class="zr86-cls-32"></path>
</g>
<path d="M-5 -5l257.3105 0l0 88l-257.3105 0Z" transform="translate(75 25)" fill="#000" stroke="#ccc" stroke-width="0" class="zr86-cls-26"></path>
<path d="M0 7L25 7" transform="translate(76 24)" fill="#000" stroke="#962eff" stroke-width="2" stroke-linecap="butt" stroke-miterlimit="10" class="zr86-cls-26"></path>
<path d="M18.1 7A5.6 5.6 0 1 1 18.1 6.9994" transform="translate(76 24)" fill="#962eff" class="zr86-cls-26"></path>
<text dominant-baseline="central" text-anchor="start" style="font-size:12px;font-family:Microsoft YaHei;" xml:space="preserve" x="30" y="7" transform="translate(76 24)" fill="#B9B8CE">insensitive (tol = .4), spread (b = .9)</text>
<path d="M-1 1l233.8223 0l0 12l-233.8223 0Z" transform="translate(76 24)" fill="transparent" class="zr86-cls-33"></path>
<path d="M0 7L25 7" transform="translate(76 46)" fill="#000" stroke="#bdffc8" stroke-width="2" stroke-linecap="butt" stroke-miterlimit="10" class="zr86-cls-26"></path>
<path d="M18.1 7A5.6 5.6 0 1 1 18.1 6.9994" transform="translate(76 46)" fill="#bdffc8" class="zr86-cls-26"></path>
<text dominant-baseline="central" text-anchor="start" style="font-size:12px;font-family:Microsoft YaHei;" xml:space="preserve" x="30" y="7" transform="translate(76 46)" fill="#B9B8CE">sensitive (tol = 0), clustered (b = .1)</text>
<path d="M-1 1l233.834 0l0 12l-233.834 0Z" transform="translate(76 46)" fill="transparent" class="zr86-cls-33"></path>
<path d="M0 7L25 7" transform="translate(76 68)" fill="#000" stroke="#d4a8ff" stroke-width="2" stroke-linecap="butt" stroke-miterlimit="10" class="zr86-cls-26"></path>
<path d="M18.1 7A5.6 5.6 0 1 1 18.1 6.9994" transform="translate(76 68)" fill="#d4a8ff" class="zr86-cls-26"></path>
<text dominant-baseline="central" text-anchor="start" style="font-size:12px;font-family:Microsoft YaHei;" xml:space="preserve" x="30" y="7" transform="translate(76 68)" fill="#B9B8CE">sensitive (tol = 0), spread (b = .9)</text>
<path d="M-1 1l220.3457 0l0 12l-220.3457 0Z" transform="translate(76 68)" fill="transparent" class="zr86-cls-33"></path>
<path d="M0 7L25 7" transform="translate(76 90)" fill="#000" stroke="#30fd48" stroke-width="2" stroke-linecap="butt" stroke-miterlimit="10" class="zr86-cls-26"></path>
<path d="M18.1 7A5.6 5.6 0 1 1 18.1 6.9994" transform="translate(76 90)" fill="#30fd48" class="zr86-cls-26"></path>
<text dominant-baseline="central" text-anchor="start" style="font-size:12px;font-family:Microsoft YaHei;" xml:space="preserve" x="30" y="7" transform="translate(76 90)" fill="#B9B8CE">insensitive (tol = .4), clustered (b = .1)</text>
<path d="M-1 1l247.3105 0l0 12l-247.3105 0Z" transform="translate(76 90)" fill="transparent" class="zr86-cls-33"></path>
<defs >
<clipPath id="zr86-c0">
<path d="M57 29l509 0l0 306l-509 0Z" fill="#000" class="zr86-cls-27"></path>
</clipPath>
<clipPath id="zr86-c1">
<path d="M57 29l509 0l0 306l-509 0Z" fill="#000" class="zr86-cls-27"></path>
</clipPath>
<clipPath id="zr86-c2">
<path d="M57 29l509 0l0 306l-509 0Z" fill="#000" class="zr86-cls-27"></path>
</clipPath>
<clipPath id="zr86-c3">
<path d="M57 29l509 0l0 306l-509 0Z" fill="#000" class="zr86-cls-27"></path>
</clipPath>
<clipPath id="zr86-c4">
<path d="M57 29l509 0l0 306l-509 0Z" fill="#000" class="zr86-cls-27"></path>
</clipPath>
<clipPath id="zr86-c5">
<path d="M57 29l509 0l0 306l-509 0Z" fill="#000" class="zr86-cls-27"></path>
</clipPath>
<clipPath id="zr86-c6">
<path d="M57 29l509 0l0 306l-509 0Z" fill="#000" class="zr86-cls-27"></path>
</clipPath>
<clipPath id="zr86-c7">
<path d="M57 29l509 0l0 306l-509 0Z" fill="#000" class="zr86-cls-27"></path>
</clipPath>
<clipPath id="zr86-c8">
<path d="M57 29l509 0l0 306l-509 0Z" fill="#000" class="zr86-cls-27"></path>
</clipPath>
<clipPath id="zr86-c9">
<path d="M57 29l509 0l0 306l-509 0Z" fill="#000" class="zr86-cls-27"></path>
</clipPath>
<clipPath id="zr86-c10">
<path d="M57 29l509 0l0 306l-509 0Z" fill="#000" class="zr86-cls-27"></path>
</clipPath>
<clipPath id="zr86-c11">
<path d="M57 29l509 0l0 306l-509 0Z" fill="#000" class="zr86-cls-27"></path>
</clipPath>
</defs>
<style ><![CDATA[
.zr86-cls-26:hover {
pointer-events:none;
}
.zr86-cls-27:hover {
cursor:pointer;
fill:rgba(0,0,0,1);
}
.zr86-cls-28:hover {
cursor:pointer;
fill:rgba(165,50,255,1);
}
.zr86-cls-29:hover {
cursor:pointer;
fill:rgba(207,255,220,1);
}
.zr86-cls-30:hover {
cursor:pointer;
fill:rgba(233,184,255,1);
}
.zr86-cls-31:hover {
cursor:pointer;
fill:rgba(52,255,79,1);
}
.zr86-cls-32:hover {
cursor:pointer;
}
.zr86-cls-33:hover {
cursor:pointer;
fill:rgba(0,0,0,0);
}

]]>

</style>
</svg>